<svg width="100" height="25" viewBox="0 0 100 25" fill="none" xmlns="http://www.w3.org/2000/svg">
<path d="M74.7413 5.95845C69.9677 5.95845 66.2306 10.1985 66.0833 15.4407C65.8252 24.4697 77.8626 27.5929 81.8119 22.6089V18.7743C81.8119 18.7743 80.5669 20.9431 75.6957 20.9431C70.8245 20.9431 70.6638 17.3188 70.6638 17.3188H83.2215C83.3343 16.703 83.3993 16.0738 83.3993 15.4254C83.384 10.1985 79.515 5.95845 74.7413 5.95845ZM70.5988 14.1307C71.1171 12.1072 72.8326 10.6346 74.8542 10.6346C76.8757 10.6346 78.6085 12.1225 79.1095 14.1307H70.5988ZM12.4429 8.64363C11.1156 7.15569 9.36753 6.24915 7.44353 6.24915C3.33352 6.24915 0 10.407 0 15.5536C0 20.7002 3.33352 24.858 7.45883 24.858C9.38474 24.858 11.1328 23.9515 12.4582 22.4635V24.7451H17.2471V6.34669H12.441V8.64363H12.4429ZM8.88366 20.7308C6.77989 20.7308 5.06436 18.4491 5.06436 15.6339C5.06436 12.8187 6.77989 10.537 8.88366 10.537C10.9874 10.537 12.703 12.8187 12.703 15.6339C12.6877 18.4491 10.9874 20.7308 8.88366 20.7308ZM44.4183 22.6069V13.1897V10.5351C44.4183 10.5351 44.1104 6.21473 39.6121 6.21473C35.1139 6.21473 34.1423 8.72204 34.1423 8.72204C34.1423 8.72204 32.8323 5.98714 29.4165 5.98714C26.6013 5.98714 25.0961 7.62234 24.6428 8.20375V6.24533H19.9495V24.6801H24.6428V12.6561C24.9335 11.9121 25.7425 10.4395 27.4256 10.4395C29.2711 10.4395 29.82 11.9599 29.9329 12.8665V22.5744C30.1107 23.4963 30.6443 24.1446 31.308 24.6782H36.0013C35.2573 24.0624 34.7868 23.3834 34.6262 22.6069V13.5282C34.6262 13.5282 34.4808 10.6001 37.2808 10.4529C39.3042 10.3553 39.6753 12.2009 39.725 13.2203V13.8667V22.5553C39.9028 23.4771 40.4364 24.1255 41.1001 24.6591H45.7934C45.0494 24.0605 44.5637 23.3815 44.4183 22.6031V22.6069ZM57.412 6.24915C55.4861 6.24915 53.738 7.15569 52.4126 8.64363V0.666504H47.6237V24.7451H52.4126V22.4482C53.7399 23.9361 55.488 24.8427 57.412 24.8427C61.522 24.8427 64.8708 20.6849 64.8708 15.5383C64.8555 10.4089 61.522 6.25107 57.412 6.25107V6.24915ZM55.9871 20.7308C53.8834 20.7308 52.1678 18.4491 52.1678 15.6339C52.1678 12.8187 53.8834 10.537 55.9871 10.537C58.0909 10.537 59.8064 12.8187 59.8064 15.6339C59.7911 18.4491 58.0909 20.7308 55.9871 20.7308ZM94.5799 6.26445L91.1163 19.2428L87.6375 6.26445H82.0873L88.2361 24.6954H93.5108L100 6.26445H94.5799Z" fill="white"/>
</svg>
