<?xml version="1.0" encoding="UTF-8"?>
<svg id="Layer_2" data-name="Layer 2" xmlns="http://www.w3.org/2000/svg" viewBox="0 0 57.97 49.64">
  <defs>
    <style>
      .cls-1 {
        fill: #fff;
      }
    </style>
  </defs>
  <g id="Layer_1-2" data-name="Layer 1">
    <path class="cls-1" d="m26.24,39.7v1.88c-.37-.09-.74-.13-1.12-.12-2.37,0-3.97,1.59-3.97,4.12s1.57,4.02,4.02,4.02c1.09.01,2.18-.15,3.21-.48v-11.15c-.64.22-1.24.54-1.78.96-.25.18-.38.47-.36.77m0,8.05c-.3.09-.61.13-.91.12-1.42,0-1.97-.93-1.97-2.28,0-1.5.55-2.42,1.95-2.42.31,0,.63.04.93.12v4.46h0Zm-9.58-6.32c-.78-.02-1.56.07-2.32.26-.13.56-.13,1.14,0,1.69.64-.16,1.3-.23,1.96-.22,1.1,0,1.65.45,1.65,1.36v.09c-.33-.04-.73-.07-1-.07-1.83,0-3.4.66-3.4,2.42,0,1.99,1.42,2.66,3.47,2.66,1.01,0,2.02-.16,2.99-.47v-4.47c0-2.14-1.16-3.2-3.35-3.25m1.29,6.43c-.3.05-.61.08-.91.09-.98,0-1.52-.29-1.52-.98s.54-.97,1.52-.97c.33,0,.71.04.91.05v1.81Zm15.04-25.16l-3.07,1.76v10.55h3.25c.3,0,.55-.23.55-.54v-11.36c0-.26-.19-.48-.45-.5-.11,0-.23.03-.32.1m-6.4,4.06v7.85c0,.2.16.36.36.36h2.11v-10.06l-2.1,1.21c-.23.11-.38.36-.37.62m2.25-19.29c-2.27,0-4.54.2-6.78.58,2.44-3.13,6.2-4.95,10.17-4.93,2.95.02,5.81,1.02,8.12,2.86.37.3.66.33.94.05.28-.28.25-.56-.06-.92-5.11-6.06-14.18-6.84-20.24-1.72-1.87,1.58-3.3,3.6-4.17,5.88-1.7.52-3.34,1.22-4.9,2.08-.4.22-.54.5-.4.81.14.31.5.44.81.31,1.26-.37,2.54-.67,3.88-.96-.15.72-.23,1.45-.23,2.18-.07,4.9,2.41,9.49,6.55,12.12.4.25.75.25.97-.06s.19-.59-.15-.9c-2.54-2.35-3.98-5.65-3.98-9.11,0-1.67.33-3.33.99-4.87,1.34-.11,2.79-.19,4.39-.19,10.37.02,19.16,3.43,19.16,7.92,0,2.27-2.88,4.54-6.3,6.05-.81.37-.91.62-.81.98.1.37.48.45.91.31,5.98-1.96,10.55-5.19,10.55-9.08,0-5.3-8.55-9.39-19.37-9.39M3.75,41.47c-.55,0-1.1.1-1.61.33v-3.83c-.64.23-1.24.55-1.78.97-.25.18-.38.47-.36.77v9.48c.91.31,1.87.46,2.83.45,2.8-.03,4.4-1.73,4.4-4.2s-1.14-3.97-3.49-3.97m-.78,6.4c-.28.01-.56-.02-.82-.09v-4.29c.39-.17.81-.26,1.24-.24,1.07,0,1.65.74,1.65,2.14,0,1.47-.68,2.47-2.06,2.47m9.74-6.32c-.87-.04-1.69.38-2.17,1.1-.05-.35-.13-.69-.24-1.02-.29-.07-.59-.1-.88-.09-.29,0-.58.03-.86.09v7.83c.35.07.71.09,1.07.09.36,0,.71-.03,1.07-.09v-3.82c0-1.52.79-2.33,1.87-2.33.24,0,.47,0,.71.04.12-.57.14-1.16.04-1.73-.2-.04-.4-.06-.61-.07m41.52-.1c-2.4,0-3.75,1.65-3.75,4.12s1.42,4.08,3.75,4.08,3.77-1.6,3.77-4.08-1.35-4.12-3.77-4.12Zm0,6.46c-1.19,0-1.55-.96-1.55-2.35s.36-2.38,1.55-2.38,1.57,1,1.57,2.38c0,1.45-.41,2.35-1.57,2.35Zm-12.66-3.09l-.86-.36c-.5-.21-.79-.38-.79-.71,0-.5.45-.61,1.04-.61.69,0,1.37.11,2.02.33.1-.53.1-1.08,0-1.61-.74-.3-1.53-.44-2.33-.41-1.65,0-2.92.9-2.92,2.24,0,1.21.51,1.82,1.97,2.4l.67.28c.64.26.82.41.82.82,0,.62-.62.73-1.14.73-.8,0-1.59-.16-2.33-.46-.14.55-.14,1.13,0,1.68.85.38,1.77.55,2.7.5,1.65,0,2.95-.86,2.95-2.41,0-1.28-.55-1.88-1.78-2.4m6.67,3.05c-1.07,0-1.78-.82-1.78-2.33,0-1.42.57-2.33,1.8-2.33.47,0,.93.09,1.36.28.16-.54.41-1.05.76-1.5-.74-.38-1.57-.57-2.4-.54-2.37,0-3.73,1.67-3.73,4.09s1.4,4.09,3.82,4.09c.81.03,1.62-.15,2.35-.52-.36-.45-.64-.96-.82-1.5-.43.19-.9.28-1.36.26m-14.92-6.42c-2.32,0-3.73,1.55-3.73,4.15s1.5,4.04,4.08,4.04c.83.02,1.66-.13,2.43-.45.12-.54.12-1.11,0-1.65-.72.23-1.46.35-2.21.36-1.19,0-2.02-.45-2.19-1.71h4.9c.07-.36.09-.72.09-1.09,0-2.33-1.31-3.64-3.33-3.64m-1.62,3.16c.16-.95.73-1.52,1.59-1.52.97,0,1.35.66,1.38,1.52h-2.97Z"/>
  </g>
</svg>