<?xml version="1.0" encoding="UTF-8"?>
<svg id="Layer_2" data-name="Layer 2" xmlns="http://www.w3.org/2000/svg" viewBox="0 0 103.45 90.46">
  <defs>
    <style>
      .cls-1 {
        fill: #fff;
      }
    </style>
  </defs>
  <g id="Layer_1-2" data-name="Layer 1">
    <g>
      <path class="cls-1" d="m51.53,56.49c-16.48-.01-28.42-13.91-28.09-28.97C23.78,12.31,36.98-.39,52.32,0c14.03.36,28,12.01,27.34,29.58-.56,14.9-12.78,26.97-28.14,26.91Zm2.16-42.43c0,.08,0-.08,0,0-2.58,0-5.17-.09-7.75.02-4.57.19-9.15.43-13.71.78-2.08.16-2.97,1.1-2.98,3.14-.06,6.83-.06,13.66.02,20.49.03,2.2.82,2.96,3.06,3.15,3.73.32,7.47.63,11.22.71,5.62.12,11.25.15,16.87,0,3.86-.11,7.71-.6,11.57-.93,1.28-.11,1.95-.87,2.01-2.13.1-2.04.27-4.07.26-6.11-.04-5.2-.08-10.41-.29-15.61-.08-2.12-.58-2.56-2.68-2.71-5.85-.41-11.73-.46-17.59-.8Z"/>
      <path class="cls-1" d="m18.82,80.95c-.64-.06-1.06-.14-1.49-.15-1.33-.02-2.67.03-4-.05-.3-.02-.81-.46-.83-.73-.08-1.49-.04-2.98-.04-4.58,2.58,0,4.94-.06,7.3.03,1.22.05,2.12-.13,2.79-1.32,1.46-2.61,3.08-5.14,4.58-7.73.61-1.06,1.48-1.51,2.66-1.5,1.82.01,3.63,0,5.52,0-3.96,6.53-7.76,12.79-11.71,19.31h7.79c0,1.79.02,3.32,0,4.85-.01,1-.8.79-1.38.79-4.96,0-9.92,0-14.87-.04-1.37,0-2.75-.04-4.12-.17-5.48-.52-10.42-5.84-10.95-11.33-.7-7.2,4.66-13.55,12.08-14.09,2.92-.21,5.72.47,8.22,2.07,1.01.65,1.97,1.38,2.96,2.09-1.19,1.84-1.95,3.01-3.23,4.99-1.74-1.45-2.26-2.38-4.03-2.6-1.59-.2-3.27-.52-4.8-.21-3.96.8-6.02,4.84-4.75,8.83,1.17,3.7,5.29,5.55,9.15,4.08,1.22-.47,2.43-1.03,3.16-2.54Z"/>
      <path class="cls-1" d="m90.4,90.45c-7.32.08-13.34-5.82-13.31-13.31.03-6.65,5.01-12.67,13.08-12.87,6.95-.17,13.28,5.41,13.27,12.92,0,7.36-5.68,13.18-13.05,13.26Zm6.78-13.01c0-3.81-3.13-6.96-6.87-6.92-3.84.04-6.85,3.02-6.85,6.8,0,3.84,3.04,6.8,6.97,6.78,3.58-.02,6.75-3.14,6.75-6.66Z"/>
      <path class="cls-1" d="m44.92,90.45c-7.13.32-13.28-5.99-13.29-13.07,0-7.12,6.08-13.33,13.29-13.15,6.81.17,12.87,5.41,13.01,13.01.14,7.43-6.76,13.54-13.01,13.21Zm-7.01-13.14c-.25,4.3,3.89,6.8,6.69,6.81,3.69.01,7-3,6.99-6.54-.01-3.33-2.15-6.99-6.7-7.06-3.87-.05-6.94,2.92-6.98,6.79Z"/>
      <path class="cls-1" d="m73.27,76.63c.21.23.48.59.8.9,2.26,2.15,2.61,4.8,1.67,7.57-.96,2.81-3.13,4.41-6.11,4.57-3.11.17-6.24.12-9.36.2-.86.02-.91-.46-.9-1.12.09-3.58.22-7.16.21-10.73,0-3.87-.11-7.74-.23-11.61-.03-1.07.27-1.52,1.39-1.49,2.95.1,5.93-.08,8.85.26,4.21.5,6.72,4.35,5.53,8.25-.34,1.11-1.17,2.06-1.85,3.2Zm-7.56,7.71c1.68.11,3.39.31,4.37-1.21.4-.61.36-1.91-.04-2.54-.99-1.58-2.71-1.2-4.33-1.15v4.9Zm-.02-9.71c1.42-.07,2.89.23,3.63-1.19.3-.58.34-1.64,0-2.16-.85-1.28-2.25-1.11-3.62-.87v4.21Z"/>
      <path class="cls-1" d="m51.61,39.66c-6.17-.02-11.45-5.26-11.44-11.38,0-6.15,5.22-11.3,11.47-11.34,6.09-.03,11.41,5.23,11.4,11.27-.01,6.33-5.13,11.46-11.43,11.44Z"/>
    </g>
  </g>
</svg>