<?xml version="1.0" encoding="utf-8"?>
<!-- Generator: Adobe Illustrator 27.4.0, SVG Export Plug-In . SVG Version: 6.00 Build 0)  -->
<svg version="1.1" id="Layer_1" xmlns="http://www.w3.org/2000/svg" xmlns:xlink="http://www.w3.org/1999/xlink" x="0px" y="0px"
	 viewBox="0 0 159 52" style="enable-background:new 0 0 159 52;" xml:space="preserve">
<style type="text/css">
	.st0{fill:#FFFFFF;}
</style>
<path class="st0" d="M68,27.3c0,7.5-5.8,13-13,13s-13-5.5-13-13c0-7.5,5.8-13,13-13S68,19.8,68,27.3z M62.3,27.3
	c0-4.7-3.4-7.8-7.3-7.8s-7.3,3.2-7.3,7.8c0,4.6,3.4,7.8,7.3,7.8S62.3,31.9,62.3,27.3z"/>
<path class="st0" d="M96.1,27.3c0,7.5-5.8,13-13,13s-13-5.5-13-13c0-7.5,5.8-13,13-13S96.1,19.8,96.1,27.3z M90.4,27.3
	c0-4.7-3.4-7.8-7.3-7.8s-7.3,3.2-7.3,7.8c0,4.6,3.4,7.8,7.3,7.8S90.4,31.9,90.4,27.3z"/>
<path class="st0" d="M122.9,15.1v23.3c0,9.6-5.6,13.5-12.3,13.5c-6.3,0-10.1-4.2-11.5-7.6l5-2.1c0.9,2.1,3,4.6,6.5,4.6
	c4.3,0,6.9-2.6,6.9-7.6v-1.9h-0.2c-1.3,1.6-3.7,2.9-6.8,2.9c-6.5,0-12.4-5.6-12.4-12.9c0-7.3,5.9-13,12.4-13c3.1,0,5.5,1.4,6.8,2.9
	h0.2v-2.1L122.9,15.1L122.9,15.1z M117.9,27.3c0-4.6-3-7.9-6.9-7.9c-3.9,0-7.2,3.3-7.2,7.9c0,4.5,3.3,7.8,7.2,7.8
	C114.9,35.1,117.9,31.8,117.9,27.3z"/>
<path class="st0" d="M131.8,1.5v38h-5.5v-38H131.8z"/>
<path class="st0" d="M153.4,31.5l4.4,2.9c-1.4,2.1-4.9,5.7-10.8,5.7c-7.4,0-12.9-5.7-12.9-13c0-7.7,5.5-13,12.2-13
	c6.7,0,10,5.3,11.1,8.2l0.6,1.5l-17.3,7.2c1.3,2.6,3.4,3.9,6.3,3.9C150,35.1,152,33.7,153.4,31.5z M139.9,26.9l11.6-4.8
	c-0.6-1.6-2.6-2.7-4.8-2.7C143.7,19.3,139.7,21.9,139.9,26.9z"/>
<path class="st0" d="M21.1,23.9v-5.5h18.5c0.2,1,0.3,2.1,0.3,3.3c0,4.1-1.1,9.2-4.8,12.9c-3.5,3.7-8,5.6-14,5.6
	c-11.1,0-20.4-9-20.4-20.1C0.7,9,10,0,21.1,0c6.1,0,10.5,2.4,13.8,5.5L31,9.4c-2.4-2.2-5.5-3.9-9.9-3.9C13,5.5,6.6,12,6.6,20.1
	c0,8.1,6.3,14.6,14.4,14.6c5.2,0,8.2-2.1,10.2-4c1.6-1.6,2.6-3.8,3-6.8L21.1,23.9z"/>
</svg>
