<?xml version="1.0" encoding="utf-8"?>
<!-- Generator: Adobe Illustrator 27.4.0, SVG Export Plug-In . SVG Version: 6.00 Build 0)  -->
<svg version="1.1" id="Layer_1" xmlns="http://www.w3.org/2000/svg" xmlns:xlink="http://www.w3.org/1999/xlink" x="0px" y="0px"
	 viewBox="0 0 100 32" style="enable-background:new 0 0 100 32;" xml:space="preserve">
<style type="text/css">
	.st0{clip-path:url(#SVGID_00000094594321844166718330000007628870321669771398_);fill:#FFFFFF;}
</style>
<g>
	<defs>
		<rect id="SVGID_1_" y="0" width="100" height="31.5"/>
	</defs>
	<clipPath id="SVGID_00000164494004486163790480000001092352534438988942_">
		<use xlink:href="#SVGID_1_"  style="overflow:visible;"/>
	</clipPath>
	<path style="clip-path:url(#SVGID_00000164494004486163790480000001092352534438988942_);fill:#FFFFFF;" d="M28.6,0
		c0.3,0.1,0.6,0.1,0.9,0.2c0.9,0.2,1.7,0.6,2.4,1.3c0.3,0.2,0.3,0.4,0,0.6c-0.2,0.2-0.4,0.4-0.5,0.6C31.2,3,31.1,3,30.8,2.8
		c-0.5-0.4-1-0.7-1.7-0.8c-0.8-0.2-1.6-0.2-2.3,0.1c-1.1,0.3-1.6,1.1-1.8,2.1c-0.1,0.4-0.1,0.9-0.2,1.4c0,0.9,0,1.7,0,2.6
		c0,0.6,0.1,1.3,0.4,1.9c0.5,1,1.3,1.5,2.3,1.5c0.5,0,0.9,0,1.4-0.1c1-0.2,1.5-0.9,1.6-1.8c0-0.5,0-1,0-1.6c-0.1,0-0.1,0-0.2,0
		c-0.6,0-1.2,0-1.8,0c-0.4,0-0.5-0.1-0.5-0.5c0-0.3,0-0.6,0-1c0-0.3,0.1-0.4,0.4-0.4c0.5,0,1,0,1.4,0c0.8,0,1.7,0,2.5,0
		c0.3,0,0.5,0.1,0.5,0.5c0,0.8,0,1.6,0,2.4c0,2.1-1.3,3.7-3.4,4.2c-1.2,0.3-2.4,0.3-3.6-0.1c-1.7-0.5-2.7-1.7-3.2-3.4
		c-0.2-0.7-0.3-1.3-0.3-2c0-0.7,0-1.5,0-2.2c0-1,0.2-1.9,0.7-2.7c0.7-1.4,1.9-2.2,3.4-2.5c0.4-0.1,0.8-0.1,1.1-0.2
		c0.1,0,0.1,0,0.2,0C28.1,0,28.4,0,28.6,0z"/>
	<path style="clip-path:url(#SVGID_00000164494004486163790480000001092352534438988942_);fill:#FFFFFF;" d="M71.7,9.3
		c0,0.3-0.1,0.6-0.2,0.9c-0.4,1.7-1.6,2.8-3.3,3.1c-0.9,0.2-1.9,0.2-2.8-0.1c-1.6-0.4-2.5-1.5-2.9-3.1c-0.2-1-0.1-2-0.1-3
		c0-0.7,0.2-1.3,0.5-1.9c0.5-1,1.3-1.6,2.3-1.9c1.2-0.4,2.4-0.4,3.6,0c1.5,0.5,2.4,1.5,2.7,3.1c0,0.2,0.1,0.5,0.1,0.7L71.7,9.3
		L71.7,9.3z M64.8,8.2C64.8,8.2,64.8,8.2,64.8,8.2c0,0.7,0,1.3,0.2,2c0.1,0.8,0.6,1.3,1.4,1.4c0.3,0.1,0.7,0.1,1,0
		c0.8-0.1,1.3-0.4,1.6-1.1c0.1-0.2,0.1-0.4,0.2-0.6c0.1-0.8,0.1-1.5,0.1-2.3c0-0.5-0.1-1-0.2-1.4c-0.2-0.8-0.6-1.3-1.4-1.4
		c-0.3-0.1-0.6-0.1-1-0.1c-1,0-1.6,0.6-1.8,1.5C64.8,6.9,64.8,7.6,64.8,8.2L64.8,8.2z"/>
	<path style="clip-path:url(#SVGID_00000164494004486163790480000001092352534438988942_);fill:#FFFFFF;" d="M71.7,27.2
		c-0.1,0.3-0.1,0.7-0.2,1c-0.4,1.7-1.5,2.7-3.2,3c-1,0.2-2,0.2-3-0.1c-1.5-0.5-2.4-1.5-2.7-3.1c-0.2-1-0.1-2-0.1-3
		c0-0.6,0.2-1.2,0.4-1.7c0.5-1.1,1.3-1.7,2.4-2.1c1.2-0.4,2.5-0.4,3.7,0c1.4,0.5,2.3,1.6,2.6,3c0,0.2,0.1,0.5,0.1,0.7V27.2
		L71.7,27.2z M64.8,26.1c0,0.2,0,0.5,0,0.7c0.1,0.5,0.1,1,0.2,1.4c0.2,0.7,0.6,1.2,1.3,1.3c0.4,0.1,0.7,0.1,1.1,0.1
		c0.7,0,1.2-0.3,1.5-1c0.1-0.2,0.2-0.5,0.2-0.8c0.2-0.8,0.1-1.5,0.1-2.3c0-0.5-0.1-1.1-0.2-1.6c-0.2-0.7-0.6-1.2-1.3-1.3
		c-0.3-0.1-0.6-0.1-0.9-0.1c-1,0-1.6,0.6-1.8,1.5C64.8,24.8,64.8,25.5,64.8,26.1L64.8,26.1z"/>
	<path style="clip-path:url(#SVGID_00000164494004486163790480000001092352534438988942_);fill:#FFFFFF;" d="M7.8,24.1
		c0.5,0.3,1,0.6,1.4,1.1c0.4,0.6,0.6,1.2,0.7,1.9c0,0.7-0.1,1.4-0.4,2C9,30,8.2,30.6,7.3,30.9c-0.9,0.3-1.9,0.4-2.9,0.4
		c-0.8,0-1.7-0.1-2.5-0.2c-0.5,0-1-0.1-1.5-0.2c-0.2,0-0.3-0.2-0.3-0.4c0-0.5,0-0.9,0-1.4c0-3.5,0-7,0-10.5c0-0.4,0.1-0.4,0.4-0.5
		C1.5,18.1,2.6,18,3.7,18c1,0,1.9,0,2.9,0.3c0.6,0.2,1.2,0.5,1.6,0.9c0.6,0.5,0.9,1.2,0.9,2c0,0.8-0.1,1.5-0.6,2.1
		C8.4,23.6,8.1,23.8,7.8,24.1L7.8,24.1z M2.2,25.3C2.2,25.4,2.2,25.4,2.2,25.3c0,1.4,0,2.6,0,3.9c0,0.1,0.1,0.2,0.2,0.2
		c0.3,0,0.6,0.1,0.9,0.1c0.8,0,1.6,0,2.3,0c0.5,0,1-0.2,1.3-0.6c0.6-0.6,0.7-1.3,0.5-2.1c-0.1-0.8-0.7-1.2-1.4-1.4
		c-0.5-0.1-0.9-0.1-1.4-0.1C3.9,25.3,3.1,25.3,2.2,25.3L2.2,25.3z M2.2,23.6c0.4,0,0.8,0,1.2,0c0.7,0,1.3,0,2,0
		c0.8-0.1,1.4-0.5,1.5-1.2C7,22,7,21.7,7,21.4c0-0.4-0.2-0.7-0.4-0.9c-0.4-0.4-0.9-0.6-1.4-0.6c-0.8,0-1.6,0-2.4,0
		c-0.2,0-0.3,0-0.5,0.1L2.2,23.6L2.2,23.6z"/>
	<path style="clip-path:url(#SVGID_00000164494004486163790480000001092352534438988942_);fill:#FFFFFF;" d="M54.4,13v0.2
		c0,1.2,0,2.3,0,3.5c0,0.3-0.1,0.4-0.4,0.4c-0.5,0-1.1,0-1.6,0c-0.3,0-0.4-0.1-0.4-0.4c0-4.2,0-8.3,0-12.5c0-0.2,0.1-0.3,0.3-0.4
		C53.7,3.3,55.1,3,56.6,3c0.7,0,1.3,0.1,2,0.4c1.3,0.5,2.1,1.4,2.4,2.7c0.3,1.4,0.3,2.8,0,4.1c-0.3,1.6-1.5,2.7-3.2,3
		C56.6,13.4,55.6,13.4,54.4,13C54.5,13,54.5,13,54.4,13L54.4,13z M54.4,5C54.4,5.1,54.4,5.1,54.4,5c0,2.1,0,4.1,0,6.2
		c0,0.1,0.1,0.2,0.2,0.2c0.7,0.2,1.4,0.2,2.2,0.2c0.5,0,1-0.2,1.3-0.6c0.3-0.4,0.5-0.8,0.5-1.3c0.1-0.8,0.1-1.5,0.1-2.3
		c0-0.4,0-0.7-0.1-1.1C58.4,5.6,58,5,57.2,4.8C56.2,4.6,55.3,4.8,54.4,5L54.4,5z"/>
	<path style="clip-path:url(#SVGID_00000164494004486163790480000001092352534438988942_);fill:#FFFFFF;" d="M11.1,26.1
		c0-0.8,0-1.5,0.2-2.3c0.5-1.6,1.6-2.5,3.2-2.8c1-0.2,1.9-0.2,2.9,0.1c1.6,0.5,2.5,1.5,2.8,3.1c0.2,1.2,0.2,2.5,0,3.8
		c-0.3,1.7-1.5,2.8-3.3,3.2c-1.1,0.2-2.2,0.2-3.2-0.2c-1.4-0.5-2.2-1.5-2.5-3C11.1,27.4,11.1,26.8,11.1,26.1
		C11.1,26.1,11.1,26.1,11.1,26.1z M18,26.1C18,26.1,17.9,26.1,18,26.1c0-0.7,0-1.4-0.2-2.1c-0.2-0.7-0.6-1.2-1.4-1.3
		c-0.3-0.1-0.7-0.1-1,0c-0.7,0.1-1.3,0.4-1.6,1.1c-0.1,0.3-0.2,0.7-0.2,1c0,0.8-0.1,1.5,0,2.3c0,0.4,0.1,0.8,0.2,1.1
		c0.2,0.7,0.6,1.2,1.4,1.4c0.3,0.1,0.6,0.1,0.8,0.1c1.1,0,1.8-0.5,2-1.6C17.9,27.4,17.9,26.8,18,26.1L18,26.1z"/>
	<path style="clip-path:url(#SVGID_00000164494004486163790480000001092352534438988942_);fill:#FFFFFF;" d="M50.1,7.9
		c0,1.4,0,2.8,0,4.2c0,0.3,0,0.4-0.4,0.5c-1,0.3-2,0.5-3,0.6c-0.7,0.1-1.4,0.1-2.1,0c-1.7-0.2-2.9-1.2-3.2-3
		c-0.1-0.4-0.1-0.7-0.1-1.1c0-1.8,0-3.7,0-5.5c0-0.4,0.1-0.5,0.5-0.5c0.5,0,1,0,1.5,0c0.3,0,0.4,0.1,0.4,0.4c0,1.9,0,3.8,0,5.7
		c0,0.4,0.1,0.8,0.2,1.2c0.2,0.7,0.7,1,1.3,1.1c0.8,0.1,1.5,0,2.3-0.1c0.2,0,0.2-0.1,0.2-0.3c0-2.5,0-5,0-7.6c0-0.4,0.1-0.5,0.4-0.5
		c0.5,0,1,0,1.5,0C50,3.2,50,3.3,50,3.7C50,5.1,50,6.5,50.1,7.9L50.1,7.9z"/>
	<path style="clip-path:url(#SVGID_00000164494004486163790480000001092352534438988942_);fill:#FFFFFF;" d="M47.4,25.3
		c0-0.6,0-1.1-0.2-1.7c-0.2-0.6-0.7-0.8-1.3-0.9c-0.9-0.1-1.8,0.1-2.6,0.5c-0.3,0.2-0.5,0.2-0.7-0.2c-0.1-0.2-0.3-0.4-0.4-0.6
		c-0.2-0.3-0.2-0.4,0.1-0.6c1.1-0.7,2.3-1,3.5-0.9c0.7,0,1.3,0.2,1.9,0.5c1,0.5,1.5,1.3,1.7,2.3c0.1,0.4,0.1,0.9,0.2,1.3
		c0,1.7,0,3.4,0,5c0,0.3-0.1,0.5-0.4,0.6c-1,0.4-2,0.6-3,0.6c-0.9,0-1.8,0-2.7-0.3c-0.9-0.3-1.6-0.9-1.8-1.9
		c-0.1-0.8-0.2-1.6,0.2-2.3c0.4-0.7,1-1.1,1.8-1.3c0.6-0.2,1.2-0.2,1.8-0.2C46.1,25.3,46.8,25.3,47.4,25.3L47.4,25.3z M47.4,26.8
		c-0.6,0-1.2,0-1.8,0c-0.3,0-0.5,0-0.8,0c-0.6,0.1-1,0.4-1.1,0.9c0,0.2,0,0.3,0,0.5c0,0.7,0.3,1.1,1,1.3c0.5,0.1,1,0.1,1.5,0.1
		c0.4,0,0.7-0.1,1.1-0.2c0.1,0,0.2-0.1,0.2-0.2c0-0.7,0-1.4,0-2.1V26.8L47.4,26.8z"/>
	<path style="clip-path:url(#SVGID_00000164494004486163790480000001092352534438988942_);fill:#FFFFFF;" d="M24.2,21.2h0.2
		c0.8,0,1.6,0,2.5,0c0.4,0,0.4,0.1,0.4,0.4c0,0.3,0,0.6,0,0.9c0,0.3-0.1,0.4-0.4,0.4c-0.8,0-1.6,0-2.5,0c-0.1,0-0.2,0-0.3,0
		c0,0.1,0,0.1,0,0.2c0,1.5,0,2.9,0,4.4c0,0.4,0.1,0.8,0.1,1.1c0.1,0.5,0.5,0.8,1.1,0.9c0.5,0.1,1.1,0,1.6-0.1c0.3-0.1,0.4,0,0.4,0.3
		c0,0.3,0,0.6,0,1c0,0.2-0.1,0.3-0.2,0.4c-1.2,0.4-2.4,0.4-3.6-0.1c-0.9-0.4-1.4-1.2-1.6-2.2c-0.1-0.4-0.1-0.8-0.1-1.2
		c0-2.8,0-5.5,0-8.3c0-0.4,0-0.4,0.4-0.5c0.5-0.1,1.1-0.2,1.6-0.4c0.3-0.1,0.4,0,0.4,0.3c0,0.7,0,1.5,0,2.2
		C24.2,21,24.2,21.1,24.2,21.2L24.2,21.2z"/>
	<path style="clip-path:url(#SVGID_00000164494004486163790480000001092352534438988942_);fill:#FFFFFF;" d="M35.3,26.1
		c0,0.7,0,1.3,0.2,2c0.3,0.9,0.9,1.4,1.9,1.5c0.8,0,1.5-0.2,2.2-0.6c0.3-0.2,0.3-0.2,0.5,0.1c0.2,0.3,0.4,0.5,0.6,0.8
		c0.2,0.2,0.1,0.4-0.1,0.5c-1,0.7-2.1,1-3.4,1c-0.7,0-1.4-0.2-2-0.5c-1.2-0.5-1.8-1.5-2.1-2.7c-0.1-0.4-0.2-0.9-0.2-1.3
		c0-0.8,0-1.5,0.1-2.3c0.2-1.9,1.6-3.2,3.5-3.5c0.9-0.1,1.8-0.2,2.7,0.2c0.4,0.2,0.8,0.4,1.1,0.6c0.2,0.2,0.2,0.3,0.1,0.6
		c-0.2,0.2-0.4,0.5-0.6,0.7c-0.2,0.2-0.3,0.2-0.5,0.1c-0.7-0.5-1.5-0.6-2.3-0.5c-0.9,0.2-1.4,0.7-1.6,1.7
		C35.4,25,35.4,25.5,35.3,26.1L35.3,26.1z"/>
	<path style="clip-path:url(#SVGID_00000164494004486163790480000001092352534438988942_);fill:#FFFFFF;" d="M51.6,26.5
		c0-1.4,0-2.8,0-4.1c0-0.3,0.1-0.4,0.3-0.5c1.1-0.5,2.2-0.7,3.3-0.8c0.5,0,0.9,0,1.4,0c0.2,0,0.4,0.1,0.4,0.4c0,0.3,0,0.7,0,1
		c0,0.3-0.1,0.3-0.3,0.3c-0.4,0-0.7,0-1.1,0c-0.5,0-0.9,0.1-1.4,0.2C54,23,54,23.1,54,23.2c0,2.5,0,4.9,0,7.4c0,0.4-0.1,0.4-0.4,0.4
		c-0.5,0-1,0-1.5,0c-0.3,0-0.4-0.1-0.4-0.4C51.6,29.3,51.6,27.9,51.6,26.5L51.6,26.5z"/>
	<path style="clip-path:url(#SVGID_00000164494004486163790480000001092352534438988942_);fill:#FFFFFF;" d="M34.6,8.6
		c0-1.4,0-2.8,0-4.1c0-0.3,0.1-0.4,0.3-0.5c1-0.5,2-0.7,3.1-0.8c0.5,0,1.1,0,1.6,0c0.2,0,0.3,0.1,0.4,0.4c0,0.3,0,0.7,0,1
		c0,0.2-0.1,0.3-0.2,0.3c-0.3,0-0.7,0-1,0c-0.5,0-0.9,0.1-1.4,0.2C37,5.1,37,5.1,37,5.5c0,2.4,0,4.8,0,7.3c0,0.4-0.1,0.4-0.4,0.4
		c-0.5,0-1,0-1.5,0c-0.4,0-0.4-0.1-0.4-0.4C34.6,11.3,34.6,10,34.6,8.6L34.6,8.6z"/>
	<path style="clip-path:url(#SVGID_00000164494004486163790480000001092352534438988942_);fill:#FFFFFF;" d="M31.3,26.1
		c0,1.5,0,3,0,4.4c0,0.5,0,0.5-0.5,0.5c-0.5,0-1,0-1.4,0c-0.3,0-0.4-0.1-0.4-0.4c0-3,0-6.1,0-9.1c0-0.3,0.1-0.4,0.4-0.4
		c0.5,0,1,0,1.6,0c0.3,0,0.4,0.1,0.4,0.4C31.3,23.1,31.3,24.6,31.3,26.1L31.3,26.1z"/>
	<path style="clip-path:url(#SVGID_00000164494004486163790480000001092352534438988942_);fill:#FFFFFF;" d="M58.4,26.1
		c0-1.5,0-3,0-4.5c0-0.3,0.1-0.4,0.4-0.4c0.5,0,1,0,1.5,0c0.3,0,0.4,0.1,0.4,0.4c0,3,0,6.1,0,9.1c0,0.3-0.1,0.4-0.4,0.4
		c-0.5,0-1.1,0-1.6,0c-0.3,0-0.4-0.1-0.4-0.4C58.4,29.2,58.4,27.7,58.4,26.1z"/>
	<path style="clip-path:url(#SVGID_00000164494004486163790480000001092352534438988942_);fill:#FFFFFF;" d="M48.4,18.1
		c0,0.2,0,0.4,0,0.6c0,0.3-0.1,0.4-0.4,0.5c-1.3,0.2-2.6,0.5-3.9,0.7c-0.1,0-0.1,0-0.2,0c-0.2,0-0.3-0.1-0.3-0.3c0-0.3,0-0.5,0-0.8
		c0-0.2,0.2-0.3,0.4-0.4c1.1-0.4,2.3-0.7,3.4-1.1c0.2-0.1,0.5-0.1,0.7-0.2c0.3-0.1,0.4,0,0.4,0.3C48.4,17.7,48.4,17.9,48.4,18.1
		L48.4,18.1z"/>
	<path style="clip-path:url(#SVGID_00000164494004486163790480000001092352534438988942_);fill:#FFFFFF;" d="M60.8,18.6
		c0,0.3,0,0.7-0.3,1c-0.7,0.6-2,0.3-2.2-0.5c-0.1-0.3-0.1-0.7,0-1.1c0.1-0.5,0.6-0.8,1.1-0.8c0.2,0,0.4,0,0.6,0.1
		c0.5,0.1,0.9,0.5,0.9,1.1C60.8,18.4,60.8,18.5,60.8,18.6L60.8,18.6z"/>
	<path style="clip-path:url(#SVGID_00000164494004486163790480000001092352534438988942_);fill:#FFFFFF;" d="M28.8,18.5
		c0-0.5,0.1-0.9,0.6-1.1c0.5-0.3,1-0.3,1.5,0c0.1,0.1,0.2,0.2,0.3,0.3c0.3,0.4,0.3,1.3,0,1.8c-0.5,0.7-1.8,0.6-2.2-0.1
		C28.8,19.2,28.8,19,28.8,18.5L28.8,18.5z"/>
	<path style="clip-path:url(#SVGID_00000164494004486163790480000001092352534438988942_);fill:#FFFFFF;" d="M94.9,13.7L94.9,13.7
		L94.9,13.7c4.5-3.7,6-7.4,4.3-10.4c-1.8-3.1-7-4.2-11.2-2.5l0,0c-0.1,0-0.1,0.1-0.2,0.1c-1.4,0.6-2.5,1.3-3.5,2.2h0
		c-3,2.5-5.6,6.8-6.4,10.6c-2,9.2,3.3,14,6.6,16.1c0,0,0.1,0.1,0.2,0.1c0.3,0.2,0.9,0.5,1.5,0.8c0,0,0,0,0,0l0,0h0
		c0.1,0,0.1,0,0.2,0.1l0.1,0c0.1,0,0.3,0.1,0.4,0.1c1.2,0.4,2.5,0.6,3.7,0.6c1.6,0,3.2-0.4,4.6-1.1c2.2-1.2,3.7-3.1,4.4-5.6
		C100.9,20.1,99,15.7,94.9,13.7z M93.5,14.2c-0.1,0.1-0.2,0.1-0.3,0.2c0,0,0,0-0.1,0.1c-0.1,0.1-0.2,0.2-0.3,0.2
		c0,0-0.1,0.1-0.1,0.1c-0.1,0-0.1,0.1-0.2,0.1c-0.1,0-0.1,0.1-0.2,0.1c0,0-0.1,0.1-0.1,0.1c-0.1,0-0.1,0.1-0.2,0.1
		c0,0-0.1,0-0.1,0.1c-0.1,0-0.1,0.1-0.2,0.1c0,0,0,0-0.1,0c0,0-0.1,0-0.1,0c-0.1,0-0.1,0-0.1,0c-0.1,0-0.1,0-0.2,0c0,0-0.1,0-0.1,0
		c-0.1,0-0.1,0-0.2,0c0,0-0.1,0-0.1,0c-0.1,0-0.1,0-0.2,0c0,0-0.1,0-0.1,0c-0.1,0-0.2,0-0.3,0c0,0,0,0,0,0c-0.2,0-0.4,0.1-0.6,0.1
		c0,0,0,0,0,0c-0.1,0-0.2,0.1-0.3,0.1c0,0,0,0,0,0c-0.1,0-0.2,0.1-0.3,0.1c0,0,0,0,0,0c-0.1,0-0.2,0.1-0.3,0.1c0,0,0,0,0,0
		c-0.1,0-0.2,0.1-0.3,0.2c0,0,0,0,0,0c-0.1,0.1-0.2,0.1-0.3,0.2c0,0,0,0,0,0c-0.1,0.1-0.2,0.1-0.2,0.2c0,0,0,0,0,0
		c-0.1,0.1-0.1,0.1-0.2,0.2c0,0,0,0,0,0c-0.1,0.1-0.1,0.1-0.2,0.2c0,0,0,0-0.1,0.1c0,0,0,0-0.1,0.1l-0.1-0.1
		C87.2,17.1,87.1,17,87,17c0,0,0,0,0,0c0-0.1-0.1-0.1-0.1-0.1c-0.5-0.5-0.8-0.9-1-1.1c0.1-0.1,0.1-0.1,0.2-0.2
		c0.1-0.1,0.1-0.1,0.2-0.2l0.1-0.1c0.1-0.1,0.2-0.3,0.4-0.4c0,0,0.1-0.1,0.1-0.1c0.1-0.1,0.2-0.2,0.3-0.2c0.1,0,0.1-0.1,0.2-0.1
		c0.1-0.1,0.2-0.1,0.3-0.2c0.1,0,0.1-0.1,0.2-0.1c0.1-0.1,0.2-0.1,0.3-0.1c0.1,0,0.1-0.1,0.2-0.1c0.1,0,0.2-0.1,0.3-0.1
		c0.1,0,0.2-0.1,0.2-0.1c0.1,0,0.2-0.1,0.3-0.1c0.1,0,0.2,0,0.2-0.1c0.1,0,0.2-0.1,0.3-0.1c0.1,0,0.2,0,0.2-0.1c0.1,0,0.2,0,0.3-0.1
		c0.1,0,0.2,0,0.2,0c0.1,0,0.2,0,0.3,0c0.1,0,0.2,0,0.3,0c0.1,0,0.2,0,0.3,0c0.1,0,0.2,0,0.3,0c0.1,0,0.2,0,0.3,0c0.1,0,0.2,0,0.3,0
		c0.1,0,0.2,0,0.3,0c0.1,0,0.2,0,0.3,0c0.1,0,0.2,0,0.3,0.1c0.1,0,0.2,0,0.3,0.1c0.1,0,0.2,0,0.3,0.1c0.1,0,0.2,0,0.3,0.1
		c0.1,0,0.2,0.1,0.3,0.1c0.1,0,0.2,0.1,0.3,0.1c0,0,0.1,0,0.1,0C93.9,13.9,93.7,14.1,93.5,14.2C93.5,14.2,93.5,14.2,93.5,14.2
		L93.5,14.2z M93,16.3c0.1,0,0.2,0.1,0.3,0.1c0,0,0,0,0,0c0.1,0,0.2,0.1,0.3,0.1c0,0,0,0,0.1,0c0.1,0,0.2,0.1,0.3,0.1c0,0,0,0,0,0
		c1.7,0.9,2.7,2.3,3.2,3.8c0,0,0,0,0,0c0,0.1,0.1,0.2,0.1,0.2c0,0,0,0.1,0,0.1c0,0.1,0,0.1,0.1,0.2c0,0,0,0.1,0,0.1
		c0,0.1,0,0.1,0,0.2c0,0.1,0,0.1,0,0.2c0,0,0,0.1,0,0.1c0,0.1,0,0.1,0,0.2c0,0,0,0.1,0,0.1c0,0.1,0,0.1,0,0.2c0,0,0,0.1,0,0.1
		c0,0.1,0,0.1,0,0.2c0,0,0,0.1,0,0.1c0,0.1,0,0.1,0,0.2c0,0,0,0.1,0,0.1c0,0.1,0,0.1,0,0.2c0,0,0,0.1,0,0.1c0,0.1,0,0.1,0,0.2
		c0,0.1,0,0.1,0,0.2c0,0,0,0.1,0,0.1c0,0.1,0,0.2,0,0.2c0,0,0,0,0,0.1c0,0.1,0,0.2,0,0.2c0,0,0,0.1,0,0.1c0,0.1,0,0.1,0,0.2
		c0,0.1,0,0.1,0,0.2c0,0,0,0,0,0c-0.6,2.9-2.9,5.8-7.1,6.2c-0.1,0-0.3,0-0.4,0c-0.1,0-0.3,0-0.4,0c0,0,0,0-0.1,0c-0.1,0-0.3,0-0.4,0
		c0,0,0,0,0,0c-0.3,0-0.6-0.1-0.8-0.1c0,0,0,0,0,0c-0.1,0-0.2,0-0.3-0.1c-0.1,0-0.2,0-0.2-0.1c0,0,0,0-0.1,0
		c-0.4-0.1-0.6-0.2-0.8-0.2l-0.1,0c0,0-0.1,0-0.1,0l-0.1-0.1c-0.8-0.3-1.3-0.8-1.7-1.5c-0.1-0.1-0.1-0.2-0.1-0.3c0,0,0,0,0,0
		c0-0.1,0-0.1-0.1-0.2c0,0,0-0.1,0-0.1c0,0,0-0.1,0-0.1c0,0,0-0.1,0-0.1c0,0,0-0.1,0-0.1c0-0.1,0-0.1,0-0.2c0,0,0-0.1,0-0.1
		c0-0.1,0-0.1,0-0.2c0,0,0-0.1,0-0.1c0-0.1,0-0.1,0-0.2c0-0.1,0-0.1,0-0.1c0-0.1,0-0.1,0-0.2c0-0.1,0-0.1,0-0.2c0-0.1,0-0.1,0-0.2
		c0-0.1,0-0.1,0-0.2c0-0.1,0-0.1,0-0.2c0-0.1,0-0.1,0-0.2c0-0.1,0-0.1,0-0.2c0-0.1,0-0.1,0-0.2c0-0.1,0-0.1,0.1-0.2
		c0-0.1,0-0.1,0.1-0.2c0-0.1,0-0.1,0.1-0.2c0-0.1,0-0.1,0.1-0.2c0-0.1,0-0.1,0.1-0.2c0-0.1,0.1-0.1,0.1-0.2c0-0.1,0.1-0.1,0.1-0.2
		c0-0.1,0.1-0.1,0.1-0.2c0-0.1,0.1-0.1,0.1-0.2c0-0.1,0.1-0.1,0.1-0.2c0-0.1,0.1-0.1,0.1-0.2c0,0,0,0,0,0c0,0,0,0,0.1,0.1
		c0,0,0.1,0.1,0.1,0.1c0,0,0.1,0.1,0.1,0.1c0,0,0.1,0.1,0.1,0.1c0,0,0.1,0.1,0.1,0.1c0,0,0.1,0.1,0.1,0.1c0,0,0.1,0.1,0.1,0.1
		c0,0,0.1,0.1,0.1,0.1c0,0,0.1,0.1,0.1,0.1c0,0,0.1,0.1,0.1,0.1c0,0,0.1,0,0.1,0.1c0.1,0,0.1,0.1,0.2,0.1c0,0,0.1,0,0.1,0.1
		c0.1,0,0.1,0.1,0.2,0.1c0,0,0.1,0,0.1,0.1c0.1,0,0.1,0,0.2,0.1c0,0,0.1,0,0.1,0c0.1,0,0.1,0,0.2,0.1c0,0,0.1,0,0.1,0
		c0.1,0,0.1,0,0.2,0.1c0,0,0.1,0,0.1,0c0.1,0,0.1,0,0.2,0c0,0,0.1,0,0.1,0c0.1,0,0.2,0,0.3,0c0,0,0,0,0,0c0.1,0,0.2,0,0.3,0
		c0,0,0.1,0,0.1,0c0.1,0,0.1,0,0.2,0c0,0,0,0,0,0c0.1,0,0.1,0,0.2,0c0,0,0.1,0,0.1,0c0.1,0,0.2,0,0.3,0c0.1,0,0.2,0,0.3-0.1
		c1.3-0.3,2.3-1.2,2.8-2.6v0c0.1-0.3,0.2-0.7,0.2-1.1c0-0.4,0-0.7,0-0.8c0-0.3-0.1-0.6-0.2-1c0,0,0,0,0-0.1c0,0,0-0.1,0-0.1
		c0,0,0,0,0-0.1c0,0,0-0.1-0.1-0.1c-0.4-0.7-1-1.2-1.8-1.4c-0.4-0.1-0.8-0.1-1.3-0.1c0.5-0.5,1.2-1,1.9-1.7
		C92.3,16.1,92.7,16.2,93,16.3C93,16.3,93,16.3,93,16.3L93,16.3z M84.3,28.9c-0.1-0.1-0.3-0.3-0.4-0.4c0-0.1-0.1-0.1-0.1-0.2
		c-0.1-0.1-0.1-0.1-0.1-0.2c0-0.1-0.1-0.1-0.1-0.2c0-0.1-0.1-0.1-0.1-0.2c0-0.1-0.1-0.1-0.1-0.2c0-0.1-0.1-0.1-0.1-0.2
		c0-0.1-0.1-0.1-0.1-0.2c0-0.1-0.1-0.1-0.1-0.2c0-0.1-0.1-0.1-0.1-0.2c0-0.1,0-0.1-0.1-0.2c0-0.1,0-0.1-0.1-0.2c0-0.1,0-0.1-0.1-0.2
		c0-0.1,0-0.1-0.1-0.2c0-0.1,0-0.1,0-0.2c0-0.1,0-0.1,0-0.2c0-0.1,0-0.1,0-0.2c0-0.1,0-0.1,0-0.2c0-0.1,0-0.1,0-0.2
		c0-0.1,0-0.2,0-0.2c0-0.1,0-0.1,0-0.2c0-0.1,0-0.2,0-0.2c0,0,0-0.1,0-0.1c0-0.1,0-0.2,0-0.3c0,0,0-0.1,0-0.1c0-0.1,0-0.2,0-0.3
		c0,0,0,0,0,0c0-0.1,0-0.2,0-0.4c0,0,0,0,0,0c0-0.2,0-0.4,0.1-0.6c0-0.1,0-0.1,0-0.2c0-0.2,0.1-0.4,0.1-0.6c0,0,0-0.1,0-0.1
		c0-0.2,0.1-0.3,0.1-0.5c0-0.1,0-0.1,0-0.2c0.1-0.2,0.1-0.4,0.2-0.6c0,0,0-0.1,0.1-0.1c0.1-0.2,0.1-0.3,0.2-0.5c0-0.1,0-0.1,0.1-0.2
		c0.1-0.2,0.2-0.4,0.3-0.6c0,0,0-0.1,0.1-0.2c0.1-0.2,0.2-0.3,0.3-0.5c0,0,0.1-0.1,0.1-0.1c0.1-0.2,0.2-0.4,0.3-0.6c0,0,0,0,0-0.1
		c0,0,0,0,0,0c0,0,0,0.1,0,0.1c0,0.1,0,0.2-0.1,0.3c0,0,0,0.1,0,0.1c0,0.1,0,0.3,0,0.4c0,0,0,0.1,0,0.1c0,0.1,0,0.2,0,0.3
		c0,0,0,0.1,0,0.2c0,0.1,0,0.3,0,0.4c0,0,0,0.1,0,0.1c0,0.1,0,0.2,0,0.3c0,0.1,0,0.1,0,0.2c0,0.1,0,0.2,0.1,0.3c0,0.1,0,0.1,0,0.2
		c0,0.1,0.1,0.2,0.1,0.3c0,0.1,0,0.1,0,0.2c0,0.1,0.1,0.2,0.1,0.3c0,0,0,0.1,0,0.1c0,0.1,0.1,0.3,0.2,0.4c0,0,0,0.1,0.1,0.1
		c0,0.1,0.1,0.2,0.2,0.3c0,0,0,0.1,0,0.1c0.1,0.1,0.1,0.2,0.2,0.4l0,0h0c0,0,0,0,0,0c0,0,0,0.1-0.1,0.1c0,0,0,0.1-0.1,0.1
		c0,0,0,0.1-0.1,0.1c0,0,0,0.1-0.1,0.1c0,0,0,0.1-0.1,0.1c0,0.1-0.1,0.1-0.1,0.2c0,0,0,0.1-0.1,0.1c0,0.1-0.1,0.1-0.1,0.2
		c0,0.1,0,0.1-0.1,0.2c0,0.1-0.1,0.1-0.1,0.2c0,0.1,0,0.1-0.1,0.2c0,0.1-0.1,0.1-0.1,0.2c0,0.1,0,0.1-0.1,0.2c0,0.1,0,0.2-0.1,0.2
		c0,0.1,0,0.1-0.1,0.2c0,0.1,0,0.2-0.1,0.2c0,0.1,0,0.1,0,0.2c0,0.1,0,0.2-0.1,0.3c0,0.1,0,0.1,0,0.2c0,0.1,0,0.2,0,0.3
		c0,0.1,0,0.1,0,0.2c0,0.1,0,0.2,0,0.3c0,0,0,0.1,0,0.2c0,0.1,0,0.2,0,0.3c0,0,0,0.1,0,0.1c0,0.1,0,0.2,0,0.3c0,0,0,0.1,0,0.1
		c0,0.1,0,0.2,0.1,0.3c0,0,0,0.1,0,0.1c0,0.1,0.1,0.3,0.1,0.4C84.2,28.7,84.3,28.8,84.3,28.9C84.3,28.9,84.3,29,84.3,28.9
		c0.1,0.1,0.1,0.1,0.1,0.1C84.3,29,84.3,29,84.3,28.9L84.3,28.9z M87.8,17.4c0,0,0.1-0.1,0.1-0.1c0,0,0.1-0.1,0.1-0.1
		c0.1,0,0.1-0.1,0.2-0.1c0,0,0,0,0.1-0.1c0.1-0.1,0.2-0.1,0.2-0.2c0,0,0,0,0.1,0c0.1,0,0.1-0.1,0.2-0.1c0,0,0.1,0,0.1-0.1
		c0.1,0,0.1-0.1,0.2-0.1c0,0,0.1,0,0.1-0.1c0,0,0.1-0.1,0.1-0.1c0,0,0.1,0,0.1-0.1c0.1,0,0.1,0,0.2-0.1c0,0,0.1,0,0.1,0
		c0.1,0,0.1,0,0.2-0.1c0,0,0.1,0,0.1,0c0.1,0,0.1,0,0.2-0.1c0,0,0,0,0.1,0c0.1,0,0.2,0,0.3-0.1c0,0,0.1,0,0.1,0c0.1,0,0.1,0,0.2,0
		c0,0,0.1,0,0.1,0c0.1,0,0.1,0,0.2,0c0,0,0.1,0,0.1,0c0.1,0,0.1,0,0.2,0c0,0,0.1,0,0.1,0c0,0,0,0,0,0c-0.5,0.5-1.6,1.4-2.5,2.3
		c-0.1,0.1-0.1,0.1-0.2,0.2c0,0-0.1-0.1-0.1-0.1c-0.1-0.1-0.2-0.2-0.3-0.3c0,0-0.1-0.1-0.1-0.1c-0.1-0.1-0.2-0.2-0.3-0.3
		c0,0-0.1-0.1-0.1-0.1C87.6,17.5,87.7,17.5,87.8,17.4C87.7,17.4,87.7,17.4,87.8,17.4L87.8,17.4z M91.6,23.8
		C91.6,23.8,91.6,23.8,91.6,23.8c-0.1,0.1-0.2,0.1-0.2,0.2c0,0-0.1,0-0.1,0.1c0,0-0.1,0.1-0.1,0.1c0,0-0.1,0-0.1,0.1
		c0,0-0.1,0-0.1,0.1c0,0-0.1,0-0.1,0c0,0-0.1,0-0.1,0.1c0,0-0.1,0-0.1,0c0,0-0.1,0-0.1,0.1c0,0-0.1,0-0.1,0c-0.1,0-0.1,0-0.2,0
		c0,0-0.1,0-0.1,0c-0.1,0-0.2,0-0.2,0c-0.1,0-0.2,0-0.3,0c0,0-0.1,0-0.1,0c-0.1,0-0.1,0-0.2,0c0,0-0.1,0-0.1,0c-0.1,0-0.1,0-0.2,0
		c0,0-0.1,0-0.1,0c-0.1,0-0.1,0-0.2,0c0,0-0.1,0-0.1,0c-0.1,0-0.1,0-0.2,0c0,0-0.1,0-0.1,0c-0.1,0-0.1,0-0.2,0c0,0-0.1,0-0.1,0
		c-0.1,0-0.1,0-0.1,0c0,0-0.1,0-0.1-0.1c0,0-0.1,0-0.1-0.1c0,0-0.1,0-0.1-0.1c0,0-0.1,0-0.1-0.1c0,0-0.1,0-0.1-0.1
		c0,0-0.1,0-0.1-0.1c0,0-0.1-0.1-0.1-0.1c0,0-0.1-0.1-0.1-0.1c0,0-0.1-0.1-0.1-0.1c0,0-0.1-0.1-0.1-0.1c0,0-0.1-0.1-0.1-0.1
		c0,0-0.1-0.1-0.1-0.1c0,0-0.1-0.1-0.1-0.1c0,0-0.1-0.1-0.1-0.1c0,0-0.1-0.1-0.1-0.1c0,0-0.1-0.1-0.1-0.1c0,0-0.1-0.1-0.1-0.1
		c0,0,0,0-0.1-0.1c0,0,0-0.1,0.1-0.1c0,0,0,0,0-0.1c0.2-0.3,0.4-0.6,0.6-0.9c0,0,0,0.1,0.1,0.1c0,0.1,0,0.1,0.1,0.1
		c0,0,0,0.1,0.1,0.1c0,0,0.1,0.1,0.1,0.1c0,0,0.1,0.1,0.1,0.1c0,0,0.1,0.1,0.1,0.1c0,0,0.1,0.1,0.1,0.1c0,0,0.1,0.1,0.1,0.1
		c0,0,0.1,0.1,0.1,0.1c0,0,0.1,0.1,0.1,0.1c0,0,0.1,0.1,0.1,0.1c0,0,0.1,0.1,0.1,0.1c0.1,0,0.1,0.1,0.2,0.1c0,0,0.1,0.1,0.1,0.1
		c0.1,0.1,0.2,0.1,0.3,0.2c0.1,0.1,0.2,0.1,0.3,0.2c0,0,0,0,0.1,0c0.1,0,0.2,0.1,0.3,0.1c0,0,0,0,0,0c0.1,0,0.2,0.1,0.3,0.1
		c0,0,0,0,0.1,0c0.1,0,0.2,0,0.3,0.1c0,0,0,0,0,0c0.1,0,0.2,0,0.3,0c0,0,0,0,0.1,0c0,0,0,0,0,0c0.1,0,0.2,0,0.3,0c0,0,0,0,0.1,0
		c0.1,0,0.2,0,0.3,0c0,0,0.1,0,0.1,0c0.1,0,0.2,0,0.3-0.1c0.1,0,0.2-0.1,0.2-0.1c0,0,0.1,0,0.1,0c0,0,0.1,0,0.1-0.1
		C91.5,23.8,91.5,23.8,91.6,23.8C91.6,23.8,91.6,23.8,91.6,23.8c0.1-0.1,0.1-0.1,0.1-0.1c0,0,0,0,0,0C91.7,23.7,91.7,23.8,91.6,23.8
		L91.6,23.8z M85.4,21.8c0-0.1,0-0.1-0.1-0.2c0-0.1-0.1-0.2-0.1-0.3c0,0,0-0.1-0.1-0.2c0-0.1-0.1-0.2-0.1-0.3c0,0,0-0.1,0-0.1
		c0-0.1-0.1-0.2-0.1-0.3c0,0,0-0.1,0-0.1c0-0.1,0-0.2-0.1-0.3c0,0,0-0.1,0-0.1c0-0.1,0-0.2,0-0.4c0,0,0,0,0-0.1c0-0.3,0-0.6,0-0.9
		c0,0,0,0,0,0c0-0.1,0-0.2,0-0.4c0,0,0-0.1,0-0.1c0-0.1,0-0.2,0.1-0.3c0-0.1,0-0.1,0-0.2c0-0.1,0-0.2,0.1-0.2c0-0.1,0-0.1,0.1-0.2
		c0-0.1,0-0.1,0.1-0.2c0-0.1,0.1-0.1,0.1-0.2c0-0.1,0-0.1,0.1-0.2c0-0.1,0.1-0.1,0.1-0.2c0-0.1,0.1-0.1,0.1-0.1
		c0-0.1,0.1-0.1,0.1-0.2c0,0,0,0,0,0c0.2,0.3,0.6,0.7,1.1,1.2c0,0.1,0.1,0.1,0.1,0.2c0,0,0.1,0.1,0.1,0.1c0,0,0,0,0,0
		c-0.6,0.8-0.9,2-0.7,3.1c0,0,0,0,0,0c0,0.1,0,0.3,0.1,0.4c0,0,0,0,0,0l-0.1,0.2c-0.2,0.3-0.4,0.6-0.5,0.8c0,0.1-0.1,0.1-0.1,0.2
		c0,0,0,0,0-0.1c0-0.1-0.1-0.1-0.1-0.2C85.4,22,85.4,21.9,85.4,21.8L85.4,21.8z M91,23.5c0,0-0.1,0-0.2,0.1c-0.1,0-0.2,0.1-0.3,0.1
		c-0.6,0.1-1.2,0-1.8-0.2c-0.1,0-0.2-0.1-0.3-0.2c-0.1-0.1-0.2-0.1-0.3-0.2c0,0-0.1,0-0.1-0.1c-0.1,0-0.1-0.1-0.2-0.1
		c0,0-0.1-0.1-0.1-0.1c-0.1,0-0.1-0.1-0.1-0.1c0,0-0.1-0.1-0.1-0.1c0-0.1-0.1-0.1-0.1-0.1c0,0-0.1-0.1-0.1-0.1
		c0-0.1-0.1-0.1-0.1-0.2c0,0-0.1-0.1-0.1-0.1c0-0.1-0.1-0.1-0.1-0.2c0,0,0-0.1-0.1-0.1c0-0.1,0-0.1-0.1-0.2c0,0,0-0.1,0-0.1
		c0,0,0-0.1,0-0.1c0,0,0-0.1,0.1-0.1c0,0,0.1-0.1,0.1-0.1c0-0.1,0.1-0.1,0.1-0.2c0,0,0.1-0.1,0.1-0.1c0-0.1,0.1-0.1,0.1-0.2
		c0,0,0.1-0.1,0.1-0.1c0.1-0.1,0.1-0.1,0.2-0.2c0,0,0-0.1,0.1-0.1c0,0,0,0,0,0c-0.2,1.4,0.7,2.8,2.1,3.1l0,0c0.7,0.2,1.4,0.1,2-0.2
		C91.6,23.2,91.3,23.4,91,23.5L91,23.5z M86.7,20.6C86.7,20.6,86.7,20.6,86.7,20.6C86.7,20.6,86.7,20.6,86.7,20.6c0-0.1,0-0.2,0-0.3
		c0-0.1,0-0.1,0-0.2c0,0,0,0,0,0c0-0.8,0.2-1.5,0.5-2.1c0,0,0,0,0,0c0,0,0.1-0.1,0.1-0.1c0.3,0.3,0.6,0.6,0.9,0.9
		C87.8,19.3,87.2,20,86.7,20.6L86.7,20.6z M92.9,20.5c0,0.2,0,0.3,0,0.5h0v0.2c-0.4,1.2-1.6,2-2.9,1.7l0,0c-1.3-0.4-2-1.6-1.7-2.9
		c0.1-0.3,0.2-0.6,0.4-0.8l0,0c0,0,0.1-0.1,0.1-0.1l0,0c0.1-0.1,0.2-0.2,0.3-0.3c0.6-0.5,1.4-0.6,2.1-0.4c0.6,0.2,1.2,0.6,1.5,1.2
		c0,0,0,0.1,0.1,0.1l0,0.1c0,0,0,0.1,0,0.1c0,0,0,0.1,0,0.1C92.9,19.9,92.9,20.2,92.9,20.5L92.9,20.5z M98.8,3.5
		c1.6,2.7,0,6.4-4.4,9.9c-0.1-0.1-0.3-0.1-0.4-0.2c0,0-0.1,0-0.1,0c-0.1-0.1-0.3-0.1-0.4-0.1c-0.1,0-0.1,0-0.2,0
		c-0.2,0-0.3-0.1-0.5-0.1c0,0-0.1,0-0.1,0c-0.2,0-0.4-0.1-0.5-0.1c0,0-0.1,0-0.1,0c-0.1,0-0.3,0-0.4,0c0,0-0.1,0-0.1,0
		c-0.2,0-0.4,0-0.5,0c0,0,0,0-0.1,0c-0.2,0-0.3,0-0.5,0c0,0-0.1,0-0.1,0c-0.2,0-0.3,0-0.5,0.1c0,0,0,0-0.1,0c-0.2,0-0.3,0.1-0.5,0.1
		c0,0-0.1,0-0.1,0c-0.1,0-0.3,0.1-0.4,0.1c0,0-0.1,0-0.1,0c-0.3,0.1-0.6,0.2-0.8,0.3c0,0,0,0,0,0c0.4-0.4,0.7-0.8,1.1-1.2
		c0,0,0.1-0.1,0.1-0.1c2.6-2.7,5.2-5.3,5.7-7.5c0.2-0.8,0.2-1.6-0.3-2.3c0-0.1-0.1-0.1-0.2-0.2c0,0,0,0-0.1-0.1c0,0-0.1-0.1-0.1-0.1
		c0,0,0,0-0.1-0.1c0,0-0.1-0.1-0.1-0.1c0,0-0.1,0-0.1-0.1c0,0-0.1-0.1-0.1-0.1c0,0-0.1,0-0.1-0.1c0,0-0.1-0.1-0.1-0.1
		c0,0-0.1,0-0.1-0.1c0,0-0.1-0.1-0.1-0.1c0,0-0.1,0-0.1-0.1c0,0-0.1-0.1-0.1-0.1c0,0-0.1,0-0.1-0.1c-0.1,0-0.1-0.1-0.2-0.1
		c0,0-0.1,0-0.1-0.1c0,0-0.1,0-0.1,0c0,0-0.1,0-0.1-0.1c0,0-0.1,0-0.1,0c0,0-0.1,0-0.1-0.1c0,0-0.1,0-0.1,0c-0.1,0-0.1,0-0.2,0
		c0,0,0,0-0.1,0c-0.1,0-0.1,0-0.2,0c0,0,0,0,0,0c-0.3-0.1-0.6-0.1-0.9-0.1C94.2,0.1,97.5,1.2,98.8,3.5L98.8,3.5z M88,1.3
		c0.1,0,0.1-0.1,0.2-0.1l0,0c0.2-0.1,0.4-0.1,0.7-0.2C90.6,0.8,93,1,94.2,2.7c0,0,0,0.1,0.1,0.1c0.3,0.5,0.4,1.1,0.2,1.8
		c-0.5,2.1-3.1,4.7-5.6,7.3c-0.1,0.1-0.3,0.3-0.4,0.4c0,0,0,0-0.1,0.1c-0.1,0.1-0.2,0.2-0.3,0.4c-0.2,0.2-0.4,0.4-0.6,0.6
		c0,0-0.1,0.1-0.1,0.1c-0.2,0.2-0.5,0.5-0.7,0.7c0,0,0,0,0,0c-0.3,0.3-0.6,0.6-0.8,0.9v-0.2l-0.2,0.4c0,0,0,0,0,0
		c0-0.1-0.1-0.1-0.1-0.2c0,0-0.1-0.1-0.1-0.2c0-0.1-0.1-0.1-0.1-0.2c0,0-0.1-0.1-0.1-0.2c0-0.1-0.1-0.1-0.1-0.2
		c0-0.1-0.1-0.1-0.1-0.2c0-0.1-0.1-0.1-0.1-0.2c0-0.1-0.1-0.1-0.1-0.2c0-0.1-0.1-0.1-0.1-0.2c0-0.1-0.1-0.1-0.1-0.2
		c0-0.1-0.1-0.1-0.1-0.2c0-0.1-0.1-0.1-0.1-0.2c0-0.1-0.1-0.1-0.1-0.2C84,13,84,13,84,12.9c0-0.1-0.1-0.1-0.1-0.2
		c0-0.1-0.1-0.1-0.1-0.2c0-0.1-0.1-0.1-0.1-0.2c0-0.1-0.1-0.1-0.1-0.2c0-0.1-0.1-0.1-0.1-0.2c0-0.1-0.1-0.1-0.1-0.2
		c0-0.1-0.1-0.1-0.1-0.2c0-0.1,0-0.1-0.1-0.2c0-0.1-0.1-0.1-0.1-0.2c0-0.1,0-0.1-0.1-0.2c0-0.1,0-0.1-0.1-0.2c0-0.1,0-0.1-0.1-0.2
		c0-0.1,0-0.1-0.1-0.2c0-0.1,0-0.1-0.1-0.2c0-0.1,0-0.1-0.1-0.2c0-0.1,0-0.1,0-0.2c0-0.1,0-0.1,0-0.2c0-0.1,0-0.1,0-0.2
		c0-0.1,0-0.1,0-0.2c0-0.1,0-0.1,0-0.2c0-0.1,0-0.1,0-0.2c0-0.1,0-0.1,0-0.2c0-0.1,0-0.1,0-0.2c0-0.1,0-0.1,0-0.2c0-0.1,0-0.1,0-0.2
		c0-0.1,0-0.1,0-0.2c0-0.1,0-0.1,0-0.2c0-0.1,0-0.1,0-0.2c0-0.1,0-0.1,0-0.2c0-0.1,0-0.1,0-0.2c0-0.1,0-0.1,0-0.2c0-0.1,0-0.1,0-0.2
		c0-0.1,0-0.1,0-0.2c0-0.1,0-0.1,0.1-0.2c0-0.1,0-0.1,0.1-0.2C83,6.1,83,6.1,83,6c0-0.1,0-0.1,0.1-0.2c0-0.1,0.1-0.1,0.1-0.2
		c0-0.1,0.1-0.1,0.1-0.2c0-0.1,0.1-0.1,0.1-0.2c0-0.1,0.1-0.1,0.1-0.2c0-0.1,0.1-0.1,0.1-0.2c0-0.1,0.1-0.1,0.1-0.2
		c0.1-0.1,0.1-0.2,0.2-0.3c0,0,0.1-0.1,0.1-0.1C84,4.1,84.1,4,84.3,3.9c0,0,0,0,0.1-0.1c0.1-0.1,0.2-0.2,0.3-0.3
		C85.6,2.6,86.7,1.9,88,1.3L88,1.3z M78.4,13.8c0.6-3,2.4-6.2,4.5-8.7c0,0,0,0.1,0,0.1c0,0,0,0.1,0,0.1c0,0.1-0.1,0.2-0.1,0.2
		c0,0,0,0,0,0c0,0.1-0.1,0.2-0.1,0.3c0,0,0,0.1,0,0.1c0,0.1,0,0.2-0.1,0.2c0,0,0,0.1,0,0.1c0,0.1,0,0.2-0.1,0.3c0,0,0,0,0,0.1
		c0,0.1,0,0.2-0.1,0.3c0,0,0,0.1,0,0.1c0,0.1,0,0.2,0,0.2c0,0,0,0.1,0,0.1c0,0.1,0,0.2,0,0.3c0,0,0,0.1,0,0.1c0,0.1,0,0.2,0,0.3
		c0,0,0,0.1,0,0.1c0,0.1,0,0.2,0,0.3c0,0,0,0.1,0,0.1c0,0.1,0,0.2,0,0.3c0,0,0,0.1,0,0.1c0,0.1,0,0.2,0,0.4c0,0,0,0.1,0,0.1
		c0,0.1,0,0.2,0,0.3c0,0,0,0.1,0,0.1c0,0.1,0,0.2,0.1,0.3c0,0,0,0.1,0,0.1c0,0.1,0.1,0.3,0.1,0.4c0,0,0,0.1,0,0.1
		c0,0.1,0.1,0.2,0.1,0.3c0,0,0,0.1,0.1,0.1c0,0.1,0.1,0.2,0.1,0.3c0,0,0,0.1,0.1,0.1c0.1,0.1,0.1,0.3,0.2,0.4c0,0,0,0.1,0,0.1
		c0.1,0.1,0.1,0.2,0.2,0.4c0,0,0.1,0.1,0.1,0.2c0.1,0.1,0.1,0.2,0.2,0.3c0,0,0.1,0.1,0.1,0.1c0.1,0.2,0.2,0.3,0.3,0.5c0,0,0,0,0,0.1
		c0.1,0.1,0.2,0.3,0.3,0.4c0,0.1,0.1,0.1,0.1,0.2c0.1,0.1,0.2,0.2,0.2,0.4c0,0.1,0.1,0.1,0.1,0.2c0.1,0.2,0.2,0.3,0.4,0.5
		c0,0,0,0,0,0c0.1,0.1,0.2,0.3,0.3,0.4l0,0l0,0l0,0h0c0,0-0.1,0.1-0.1,0.1c-0.1,0.1-0.1,0.2-0.2,0.3c0,0.1-0.1,0.1-0.1,0.2
		c-0.1,0.1-0.1,0.2-0.2,0.3c0,0.1-0.1,0.1-0.1,0.2c-0.1,0.1-0.1,0.2-0.2,0.3c0,0.1-0.1,0.1-0.1,0.2c-0.1,0.1-0.1,0.2-0.2,0.3
		c0,0.1-0.1,0.1-0.1,0.2c-0.1,0.1-0.1,0.2-0.2,0.3c0,0.1-0.1,0.1-0.1,0.2c-0.1,0.1-0.1,0.2-0.2,0.3c0,0.1-0.1,0.1-0.1,0.2
		c-0.1,0.1-0.1,0.2-0.1,0.3c0,0.1-0.1,0.1-0.1,0.2c0,0.1-0.1,0.2-0.1,0.3c0,0.1,0,0.1-0.1,0.2c0,0.1-0.1,0.2-0.1,0.3
		c0,0.1,0,0.1-0.1,0.2c0,0.1-0.1,0.2-0.1,0.3c0,0.1,0,0.1-0.1,0.2c0,0.1-0.1,0.2-0.1,0.3c0,0.1,0,0.1,0,0.2c0,0.1-0.1,0.2-0.1,0.3
		c0,0,0,0.1,0,0.1c0,0.1-0.1,0.2-0.1,0.3c0,0,0,0.1,0,0.1c0,0.1-0.1,0.2-0.1,0.4c0,0,0,0.1,0,0.1c-0.1,0.3-0.1,0.6-0.1,0.9
		c0,0,0,0,0,0c0,0.1,0,0.3,0,0.4c0,0,0,0.1,0,0.1c0,0.1,0,0.2,0,0.3c0,0,0,0.1,0,0.1c0,0.1,0,0.3,0,0.4c0,0,0,0.1,0,0.1
		c0,0.1,0,0.2,0,0.4c0,0,0,0.1,0,0.1c0,0.1,0,0.3,0.1,0.4c0,0,0,0,0,0c0,0.1,0.1,0.3,0.1,0.4c0,0,0,0.1,0,0.1c0,0.1,0.1,0.2,0.1,0.3
		c0,0,0,0,0,0.1c0,0.1,0.1,0.3,0.1,0.4c0,0,0,0,0,0c0,0.1,0.1,0.2,0.2,0.4c0,0,0,0,0,0.1c0.1,0.1,0.1,0.2,0.2,0.4c0,0,0,0,0,0
		c0.1,0.1,0.1,0.2,0.2,0.4c0,0,0,0,0,0c0,0.1,0.1,0.1,0.1,0.2C80.1,25.8,76.8,21.4,78.4,13.8L78.4,13.8z M99.2,24.7
		C98.6,27,97.1,28.9,95,30c-1,0.5-2.1,0.9-3.2,1c0,0,0.1,0,0.1,0c3.7-0.9,5.7-4,6.1-6.9c0,0,0-0.1,0-0.1c0,0,0,0,0-0.1
		c0-0.1,0-0.1,0-0.2c0,0,0,0,0,0c0,0,0,0,0-0.1c0-0.1,0-0.1,0-0.2c0-0.1,0-0.1,0-0.2c0,0,0-0.1,0-0.1c0-0.1,0-0.1,0-0.2
		c0,0,0-0.1,0-0.1c0-0.1,0-0.1,0-0.2c0,0,0-0.1,0-0.1c0-0.1,0-0.1,0-0.2c0,0,0-0.1,0-0.1c0-0.1,0-0.1,0-0.2c0,0,0-0.1,0-0.1
		c0-0.1,0-0.1,0-0.2c0,0,0-0.1,0-0.1c0-0.1,0-0.1,0-0.2c0,0,0-0.1,0-0.1c0-0.1,0-0.1,0-0.2c0,0,0-0.1,0-0.2c0,0,0-0.1,0-0.1
		c0-0.1,0-0.1-0.1-0.2c0,0,0-0.1,0-0.1c0-0.1,0-0.1-0.1-0.2c0,0,0-0.1,0-0.1c0-0.1-0.1-0.1-0.1-0.2c0,0,0,0,0-0.1
		c0-0.1-0.1-0.2-0.1-0.2c0,0,0,0,0-0.1c0-0.1-0.1-0.2-0.1-0.2c0,0,0,0,0,0c0-0.1-0.1-0.2-0.1-0.2c0,0,0,0,0,0c0-0.1-0.1-0.2-0.1-0.2
		c0,0,0,0,0,0c-0.1-0.1-0.1-0.2-0.2-0.2c0,0,0,0,0,0c-0.1-0.1-0.1-0.2-0.2-0.2c0,0,0,0,0,0c-0.1-0.1-0.1-0.1-0.2-0.2
		c0,0,0,0-0.1-0.1c-0.1-0.1-0.1-0.1-0.2-0.2c0,0-0.1-0.1-0.1-0.1c-0.1-0.1-0.1-0.1-0.2-0.2c0,0-0.1-0.1-0.1-0.1c0,0-0.1-0.1-0.1-0.1
		c0,0-0.1-0.1-0.1-0.1c0,0-0.1-0.1-0.1-0.1c-0.1,0-0.1-0.1-0.2-0.1c0,0-0.1,0-0.1-0.1c-0.1-0.1-0.2-0.1-0.2-0.2c0,0,0,0,0,0
		c-0.1-0.1-0.2-0.1-0.3-0.2c0,0,0,0,0,0c-0.4-0.2-0.8-0.4-1.3-0.6c0,0-0.1,0-0.1,0c0,0-0.1,0-0.1,0c-0.1,0-0.2-0.1-0.3-0.1h0
		c0,0-0.1,0-0.1,0l-0.1,0c0,0-0.1,0-0.1,0c0,0,0,0-0.1,0c0,0,0,0,0,0c0.3-0.2,0.6-0.5,0.9-0.7c0,0,0,0,0,0c0.2-0.1,0.3-0.3,0.5-0.4
		c0,0,0,0,0,0c0.2-0.1,0.4-0.3,0.6-0.4c0,0,0.1,0,0.1-0.1C98.6,15.9,100.4,20.1,99.2,24.7L99.2,24.7z"/>
</g>
</svg>
