<svg width="71" height="37" viewBox="0 0 71 37" fill="none" xmlns="http://www.w3.org/2000/svg">
<g clip-path="url(#clip0_409_1577)">
<path d="M0 21.2413H5.33109L8.2935 6.51325H2.96171L0 21.2413ZM3.25544 4.75662H8.60885L9.48865 0.350069H4.13733L3.25544 4.75662ZM7.40463 25.3856H12.7364L15.994 9.4735H19.9924L20.582 6.51325H16.6602L16.8089 5.84728C17.0307 4.59205 17.4752 3.18271 19.4741 3.18271C20.6601 3.18271 21.7702 3.25662 22.8802 3.77475L23.4732 0.666666C22.2361 0.230386 20.9345 0.00502501 19.6227 0C15.3277 0 12.3666 2.51673 11.2552 6.51325H9.40423L8.81188 9.4735H10.6629L7.40463 25.3856Z" fill="white"/>
<path d="M24.2875 21.5377C30.5814 21.5377 34.9504 15.8382 34.9504 11.1758C34.9504 7.69738 31.7661 6.21691 28.6565 6.21691C21.7681 6.21691 17.9936 12.3634 17.9936 16.5788C17.9936 20.0572 21.2518 21.5377 24.2875 21.5377ZM41.1717 21.5377C47.4656 21.5377 51.8346 15.8382 51.8346 11.1758C51.8346 7.69738 48.5763 6.21691 45.466 6.21691C38.5798 6.21691 34.8039 12.3599 34.8039 16.5788C34.8039 20.0572 38.136 21.5377 41.1717 21.5377ZM60.4979 21.2413H65.755L70.0486 0.299194H64.7175L63.4582 6.51607L61.2367 6.29431C56.0535 6.29431 51.3148 12.9547 51.3148 17.6918C51.3148 19.6158 52.5706 21.5405 54.7209 21.5405C57.7566 21.5405 59.9041 20.06 60.7909 18.5795H61.0867L60.4979 21.2413ZM44.0581 32.2692C39.9199 35.6962 34.6049 37.3695 29.2488 36.9317C22.214 36.4875 17.1787 31.0844 16.2905 25.3857H16.5863C18.2155 28.9422 22.14 32.2692 26.9534 32.7866C31.8373 33.3787 37.6902 31.159 40.8738 28.1242L37.3197 25.3857H48.0566L45.6844 36.7839L44.1292 32.3431L44.0581 32.2692Z" fill="white"/>
</g>
<defs>
<clipPath id="clip0_409_1577">
<rect width="70.0485" height="37" fill="white"/>
</clipPath>
</defs>
</svg>
