<svg width="50" height="51" viewBox="0 0 50 51" fill="none" xmlns="http://www.w3.org/2000/svg">
<g clip-path="url(#clip0_796_34)">
<path d="M41.6678 0.820923H8.3392C3.72977 0.820923 0 4.55773 0 9.16012V42.4958C0 47.0982 3.72977 50.8209 8.3392 50.8209H41.6678C46.2773 50.8209 50 47.0912 50 42.4958V9.16012C50 4.55773 46.2702 0.820923 41.6678 0.820923ZM8.05771 42.4888H4.16608V25.8174H8.05067V42.4888H8.05771ZM40.5559 25.8174H44.2294L40.9289 29.1883H38.2196L40.563 25.8174H40.5559ZM17.931 42.4254C17.4173 42.6225 16.9669 42.7984 15.8269 42.7984C14.4968 42.7984 13.399 42.2988 12.7727 41.6302C12.0408 40.8631 11.7101 39.6035 11.7101 37.9216V32.8406H9.93666V29.9905H11.7101V25.8174H15.4821V29.9905H17.8958V32.8406H15.4821V37.2671C15.4821 38.8012 15.7917 39.6387 17.1429 39.6387C17.5299 39.6387 17.8325 39.5824 17.9381 39.5331V42.4325L17.931 42.4254ZM31.2526 42.4888H28.0859L27.6636 41.1869H27.6214C26.7699 42.1932 25.3765 42.7914 23.7157 42.7914C20.936 42.7914 19.43 40.8702 19.43 38.9701C19.43 35.74 22.5405 34.1003 27.5792 34.1214V33.9877C27.5792 33.4036 27.1006 32.2495 24.8276 32.2495C23.4623 32.2495 21.9564 32.728 21.0767 33.2558L20.3448 30.7998C21.3089 30.2368 23.0894 29.6175 25.475 29.6175C29.7748 29.6175 31.2526 32.0806 31.2526 35.0855V42.4747V42.4888ZM45.841 42.4888H42.7657L42.2801 40.7154C42.1534 40.9054 41.9775 41.1165 41.7523 41.3558C41.5271 41.595 41.2456 41.8202 40.9078 42.0243C40.5771 42.2284 40.1759 42.4043 39.7115 42.5521C39.247 42.6999 38.7192 42.7703 38.121 42.7703C37.4314 42.7703 36.8051 42.6647 36.235 42.4606C35.665 42.2565 35.1724 41.9328 34.7643 41.4824C34.3561 41.0391 34.0324 40.4691 33.8001 39.7864C33.5679 39.1038 33.4483 38.2734 33.4483 37.2952V29.9905H37.2414V36.6056C37.2414 38.5549 37.9381 39.7231 39.5215 39.7231C40.7811 39.7231 41.5482 38.8716 41.8649 38.1186C41.9564 37.8793 41.9986 37.619 41.9986 37.3234V29.9976H45.848V42.4888H45.841Z" fill="white"/>
<path d="M25.7775 36.6689C24.2786 36.9011 23.2793 37.5063 23.2793 38.6815C23.2793 39.7301 24.0182 40.286 25.0879 40.286C26.3124 40.286 27.2272 39.519 27.572 38.7027C27.5791 38.6815 27.5861 38.6604 27.6002 38.6393C27.6072 38.6182 27.6354 38.5338 27.6354 38.5056C27.6846 38.3015 27.6987 38.0763 27.6987 37.8793V36.5563C27.4313 36.5563 27.178 36.5563 26.9317 36.5633C26.5165 36.5774 26.1364 36.6126 25.7846 36.6689H25.7775Z" fill="white"/>
</g>
<defs>
<clipPath id="clip0_796_34">
<rect width="50" height="50" fill="white" transform="translate(0 0.820923)"/>
</clipPath>
</defs>
</svg>
