<svg width="135" height="40" viewBox="0 0 135 40" fill="none" xmlns="http://www.w3.org/2000/svg">
<g clip-path="url(#clip0_8_87)">
<path d="M51.6911 19.5316C50.7882 19.5471 49.8918 19.374 49.0577 19.0229C48.3041 18.6986 47.6364 18.1988 47.1085 17.5638C46.5609 16.8885 46.1508 16.1095 45.9021 15.272C45.6082 14.2951 45.4646 13.2779 45.4766 12.2565C45.4661 11.239 45.6096 10.2259 45.9021 9.25268C46.1519 8.41263 46.5636 7.63132 47.1133 6.9541C47.6414 6.31939 48.3091 5.81958 49.0625 5.49499C49.8966 5.14391 50.793 4.97074 51.6959 4.98625C53.0656 4.98625 54.189 5.29817 55.0662 5.92202C55.9371 6.53741 56.6066 7.40335 56.9885 8.40834L54.6139 9.53283C54.4429 8.92536 54.0882 8.38775 53.6 7.9959C53.117 7.61264 52.4807 7.42101 51.6911 7.42101C50.6376 7.42101 49.8432 7.75434 49.3078 8.42099C48.7725 9.08764 48.5048 9.95403 48.5048 11.0201V13.4987C48.5048 14.5661 48.7725 15.4325 49.3078 16.0978C49.8432 16.7632 50.6376 17.0965 51.6911 17.0978C52.5337 17.0978 53.2045 16.8884 53.7035 16.4694C54.2281 16.0175 54.6388 15.4448 54.9014 14.7992L57.0872 15.9753C56.6311 17.1199 55.9465 17.9986 55.0336 18.6114C54.1207 19.2242 53.0059 19.5306 51.6892 19.5306" fill="#FCFCFC"/>
<path d="M64.0358 19.5306C63.1464 19.5422 62.264 19.3694 61.4426 19.0229C60.6785 18.6974 59.9982 18.1982 59.4542 17.5638C58.8876 16.8923 58.4579 16.1133 58.1902 15.272C57.8797 14.2984 57.7285 13.2797 57.7427 12.2565C57.7296 11.2359 57.8808 10.22 58.1902 9.2488C58.4577 8.40532 58.8873 7.62406 59.4542 6.95022C59.9988 6.31641 60.679 5.81734 61.4426 5.49111C63.1074 4.81404 64.9651 4.81404 66.6299 5.49111C67.3933 5.81782 68.0733 6.31682 68.6183 6.95022C69.1845 7.62455 69.614 8.40566 69.8823 9.2488C70.1913 10.2201 70.3424 11.2359 70.3298 12.2565C70.3435 13.2797 70.1923 14.2983 69.8823 15.272C69.6147 16.1157 69.1851 16.8973 68.6183 17.5716C68.0739 18.2056 67.3937 18.7047 66.6299 19.0307C65.8082 19.3773 64.9255 19.5501 64.0358 19.5384M64.0358 17.1066C65.019 17.1066 65.8092 16.8008 66.4066 16.1893C67.0039 15.5778 67.3023 14.6608 67.3016 13.4384V11.0892C67.3016 9.86746 67.0033 8.95049 66.4066 8.33832C65.8099 7.72614 65.0196 7.4207 64.0358 7.422C63.0526 7.422 62.2626 7.72776 61.6659 8.33929C61.0692 8.95082 60.7709 9.86746 60.7709 11.0892V13.4296C60.7709 14.652 61.0692 15.569 61.6659 16.1805C62.2626 16.7921 63.0526 17.0978 64.0358 17.0978" fill="#FCFCFC"/>
<path d="M72.1726 19.2106V5.31017H75.0475V7.60876H75.1788C75.464 6.87811 75.9296 6.23426 76.5309 5.73915C77.1366 5.24046 77.9671 4.99079 79.0225 4.99014C80.428 4.99014 81.5207 5.45803 82.3008 6.39381C83.0808 7.32958 83.4696 8.66126 83.467 10.3888V19.2106H80.5998V10.7633C80.5998 8.58895 79.7396 7.50208 78.0191 7.50273C77.6502 7.50256 77.2829 7.55195 76.9267 7.64961C76.5847 7.73955 76.2605 7.88861 75.9684 8.09026C75.6905 8.28321 75.4608 8.53935 75.2976 8.8383C75.1244 9.16697 75.0382 9.53567 75.0475 9.90831V19.2106H72.1726Z" fill="#FCFCFC"/>
<path d="M94.7432 16.9111H94.6119C94.3406 17.6951 93.8283 18.37 93.1505 18.8361C92.474 19.2991 91.6796 19.531 90.7673 19.5316C89.0289 19.5316 87.6873 18.8945 86.7424 17.6202C85.7976 16.3459 85.3219 14.558 85.3156 12.2565C85.3156 9.95761 85.7896 8.17101 86.7377 6.89672C87.6857 5.62243 89.0273 4.98529 90.7625 4.98529C91.6748 4.98529 92.4692 5.21226 93.1457 5.66621C93.8322 6.13182 94.3477 6.8148 94.6119 7.60877H94.7432V5.31019H97.6181V24.5568H94.7432V16.9111ZM91.6355 17.0229C92.5133 17.0229 93.2508 16.8047 93.8482 16.3683C94.4455 15.9318 94.7438 15.3573 94.7432 14.6446V9.88109C94.7432 9.16774 94.4449 8.59318 93.8482 8.15739C93.2515 7.72161 92.5139 7.50339 91.6355 7.50274C90.635 7.50274 89.8364 7.82699 89.2397 8.47548C88.6431 9.12397 88.3447 9.98355 88.3447 11.0542V13.4608C88.3447 14.5301 88.6431 15.3897 89.2397 16.0395C89.8364 16.6893 90.635 17.0135 91.6355 17.0122" fill="#FCFCFC"/>
<path d="M108.542 16.9121H108.436C108.31 17.2583 108.146 17.5897 107.949 17.9004C107.744 18.2242 107.485 18.5093 107.183 18.7427C106.849 18.9969 106.475 19.1913 106.077 19.3176C105.595 19.4677 105.093 19.5399 104.589 19.5316C103.167 19.5316 102.065 19.0683 101.285 18.1416C100.504 17.2149 100.113 15.8871 100.113 14.1582V5.3063H102.987V13.7837C102.987 15.9406 103.865 17.0187 105.621 17.0181C105.986 17.0188 106.349 16.9693 106.701 16.8712C107.035 16.7815 107.352 16.6323 107.635 16.4305C107.908 16.2347 108.133 15.9786 108.293 15.6815C108.467 15.3528 108.553 14.9842 108.544 14.6115V5.3102H111.418V19.2106H108.544L108.542 16.9121Z" fill="#FCFCFC"/>
<path d="M119.562 19.5316C118.659 19.5471 117.763 19.374 116.929 19.0229C116.17 18.6944 115.495 18.1955 114.954 17.5638C114.389 16.8909 113.965 16.1086 113.708 15.2642C113.406 14.2915 113.258 13.2763 113.27 12.2565C113.257 11.237 113.404 10.2218 113.704 9.24881C113.962 8.40503 114.386 7.62309 114.95 6.95022C115.491 6.31875 116.166 5.8199 116.925 5.49111C117.759 5.14003 118.655 4.96686 119.558 4.98237C120.559 4.98237 121.441 5.16071 122.205 5.51738C122.947 5.8563 123.602 6.36504 124.118 7.00372C124.638 7.65606 125.029 8.40506 125.268 9.20892C125.528 10.0845 125.657 10.9947 125.651 11.9092V13.0045H116.241V13.4569C116.241 14.5191 116.552 15.391 117.175 16.0726C117.798 16.7541 118.689 17.0949 119.848 17.0949C120.69 17.0949 121.401 16.9091 121.981 16.5375C122.576 16.1493 123.08 15.6321 123.455 15.023L125.141 16.7126C124.63 17.5699 123.893 18.2534 122.929 18.7632C121.966 19.2729 120.842 19.5277 119.558 19.5277M119.558 7.25761C119.093 7.25248 118.632 7.34349 118.202 7.52511C117.802 7.69426 117.442 7.94946 117.148 8.27315C116.851 8.6072 116.623 8.99812 116.477 9.42292C116.315 9.89582 116.235 10.3939 116.241 10.8947V11.0892H122.613V10.8169C122.613 9.7475 122.341 8.88759 121.797 8.23716C121.252 7.58672 120.506 7.26247 119.558 7.26442" fill="#FCFCFC"/>
<path d="M127.444 19.2106V5.31018H130.314V7.98327H130.446C130.653 7.24892 131.075 6.5962 131.658 6.11269C132.271 5.57768 133.123 5.31018 134.211 5.31018H134.978V8.1175H133.846C132.705 8.1175 131.831 8.3046 131.225 8.67878C130.62 9.05296 130.317 9.60417 130.317 10.3324V19.2077L127.444 19.2106Z" fill="#FCFCFC"/>
<path d="M45.5025 0H0L22.7508 40L45.5025 0ZM32.7083 20.8935L23.1456 37.7073V26.4974L32.7083 20.8935ZM34.1793 18.3069V7.10099L43.743 1.49607L34.1793 18.3069ZM43.3492 0.797646L33.7855 6.40257L24.2792 0.833637L24.2217 0.799591L43.3492 0.797646ZM21.2807 0.797646L21.2232 0.831692L11.717 6.40257L2.15328 0.799591L21.2807 0.797646ZM1.75942 1.49315L11.3231 7.10099V18.3069L1.75942 1.49315ZM12.1109 7.10099L22.3569 1.09336V13.1028L12.1109 19.1075V7.10099ZM23.1456 1.09336L33.3916 7.10099V19.1075L23.1456 13.1028V1.09336ZM22.7508 13.7954L32.9968 19.8001L22.7508 25.8048L12.5047 19.8001L22.7508 13.7954ZM12.7932 20.8964L22.3569 26.5003V37.7073L12.7932 20.8964Z" fill="#FCFCFC"/>
<path d="M45.4766 27.3067H50.017C50.7938 27.3067 51.3988 27.5288 51.832 27.9731C52.2651 28.4173 52.4817 29.0064 52.4817 29.7405C52.4893 30.0546 52.4416 30.3676 52.3408 30.6646C52.2601 30.8975 52.1322 31.1106 51.9652 31.2901C51.8125 31.4519 51.6248 31.5754 51.417 31.651C51.1995 31.7293 50.9712 31.7726 50.7405 31.7794V31.8611C50.9795 31.8639 51.2166 31.9053 51.4429 31.9837C51.6912 32.0675 51.921 32.1996 52.1195 32.3728C52.3355 32.5637 52.5109 32.7974 52.635 33.0595C52.7827 33.3827 52.8539 33.7365 52.843 34.0926C52.8452 34.4522 52.7838 34.8093 52.6618 35.147C52.5495 35.4641 52.3791 35.7569 52.1597 36.0098C51.9462 36.2541 51.6852 36.4509 51.3931 36.5876C51.0909 36.73 50.7612 36.8022 50.4281 36.7987H45.4766V27.3067ZM47.512 31.1977H49.5349C49.6501 31.2086 49.7663 31.1937 49.8752 31.1538C49.984 31.114 50.0828 31.0503 50.1647 30.9673C50.2465 30.8842 50.3092 30.7839 50.3485 30.6734C50.3877 30.5629 50.4024 30.445 50.3917 30.3281V29.9195C50.4021 29.8027 50.3871 29.6849 50.3478 29.5746C50.3084 29.4642 50.2456 29.3641 50.1639 29.2811C50.0822 29.1981 49.9834 29.1344 49.8748 29.0944C49.7661 29.0545 49.6501 29.0393 49.5349 29.0499H47.512V31.1977ZM47.512 35.0595H49.856C50.0889 35.0723 50.3175 34.9916 50.4923 34.8348C50.5731 34.7521 50.6357 34.653 50.6762 34.5441C50.7167 34.4351 50.734 34.3187 50.7271 34.2025V33.7404C50.7339 33.6242 50.7165 33.5078 50.676 33.3989C50.6356 33.29 50.573 33.1909 50.4923 33.1081C50.3173 32.9517 50.0888 32.8713 49.856 32.8844H47.512V35.0595Z" fill="#FCFCFC"/>
<path d="M57.7849 35.6022H57.7178C57.6553 35.7835 57.5724 35.9569 57.4705 36.1188C57.3643 36.2855 57.2307 36.4325 57.0757 36.5536C56.9028 36.6868 56.7082 36.7882 56.5008 36.8532C56.2559 36.9294 56.0008 36.9662 55.7447 36.9621C55.0215 36.9621 54.4746 36.7196 54.1041 36.2345C53.7335 35.7495 53.5495 35.0523 53.5521 34.1431V29.6588H55.5348V33.969C55.5348 34.4042 55.6108 34.7394 55.7629 34.9748C55.9143 35.2102 56.173 35.3289 56.5401 35.3289C56.6939 35.3282 56.8468 35.3053 56.9943 35.2608C57.1383 35.2196 57.2744 35.1538 57.3968 35.0663C57.5119 34.981 57.6079 34.8719 57.6785 34.7462C57.7521 34.6088 57.7888 34.4542 57.7849 34.2978V29.6588H59.7676V36.7968H57.7849V35.6022Z" fill="#FCFCFC"/>
<path d="M63.3295 36.9641C62.6511 36.9641 62.0799 36.8529 61.6161 36.6304C61.1432 36.4026 60.7198 36.0815 60.3703 35.6859L61.5347 34.4894C61.7709 34.7593 62.0522 34.9849 62.3655 35.1558C62.6842 35.322 63.0384 35.4058 63.3966 35.3999C63.7895 35.3999 64.0674 35.3386 64.214 35.2171C64.2878 35.1584 64.3468 35.0829 64.3863 34.9967C64.4258 34.9105 64.4446 34.816 64.4411 34.721C64.4411 34.3857 64.2048 34.1859 63.732 34.1217L62.9654 34.0245C61.3848 33.826 60.5946 33.0919 60.5946 31.8222C60.5894 31.4969 60.6548 31.1744 60.7862 30.8777C60.9135 30.5946 61.101 30.3438 61.3353 30.1432C61.5884 29.9302 61.8796 29.7687 62.193 29.6676C62.5585 29.5496 62.9403 29.4921 63.3238 29.4973C63.6511 29.4936 63.9781 29.5183 64.3012 29.5713C64.5584 29.6146 64.8099 29.6877 65.0506 29.7892C65.2649 29.8817 65.4673 30.0002 65.6534 30.1423C65.8427 30.2888 66.0241 30.4456 66.1967 30.6121L65.0583 31.793C64.839 31.5702 64.5827 31.3885 64.3012 31.2561C64.0311 31.1283 63.7368 31.0619 63.4388 31.0615C63.0995 31.0615 62.8587 31.116 62.7162 31.2249C62.648 31.2739 62.5927 31.3392 62.5552 31.415C62.5178 31.4909 62.4993 31.5749 62.5016 31.6597C62.4968 31.74 62.5079 31.8205 62.5342 31.8963C62.5605 31.9722 62.6016 32.0419 62.6549 32.1014C62.7578 32.2058 62.952 32.2804 63.2375 32.3251L64.0281 32.434C65.5729 32.6429 66.3453 33.3591 66.3453 34.5828C66.3487 34.9126 66.2755 35.2385 66.1316 35.5342C65.9853 35.8283 65.7769 36.0861 65.5211 36.289C65.2375 36.5131 64.9151 36.6813 64.5705 36.7851C64.1682 36.9084 63.7497 36.9688 63.3295 36.9641Z" fill="#FCFCFC"/>
<path d="M68.0175 28.8972C67.6163 28.8972 67.324 28.8044 67.1406 28.6189C67.0494 28.5252 66.9779 28.4136 66.9308 28.2908C66.8837 28.168 66.8618 28.0367 66.8666 27.905V27.6054C66.8619 27.4738 66.8839 27.3427 66.931 27.2201C66.9781 27.0975 67.0495 26.9859 67.1406 26.8923C67.3234 26.7069 67.6156 26.6138 68.0175 26.6132C68.4193 26.6125 68.7119 26.7056 68.8953 26.8923C68.9866 26.9858 69.0581 27.0973 69.1054 27.22C69.1527 27.3426 69.1748 27.4737 69.1703 27.6054V27.905C69.1749 28.0367 69.1529 28.168 69.1056 28.2908C69.0583 28.4136 68.9867 28.5253 68.8953 28.6189C68.7126 28.8051 68.42 28.8978 68.0175 28.8972ZM67.0266 29.6588H69.0093V36.7968H67.0266V29.6588Z" fill="#FCFCFC"/>
<path d="M70.188 36.7968V29.6588H72.1697V30.8689H72.255C72.3834 30.4927 72.6103 30.1591 72.9114 29.9039C73.2238 29.6316 73.657 29.4954 74.2109 29.4954C74.9341 29.4954 75.4809 29.7402 75.8515 30.2298C76.222 30.7194 76.4073 31.4172 76.4073 32.3231V36.7977H74.4208V32.4895C74.4208 32.0278 74.3492 31.6857 74.2061 31.4632C74.0633 31.2405 73.8084 31.1306 73.4395 31.1306C73.2813 31.1299 73.1238 31.1502 72.9709 31.1909C72.8238 31.2287 72.6853 31.2948 72.5626 31.3854C72.444 31.474 72.3458 31.5879 72.2751 31.7191C72.2013 31.8589 72.1643 32.0157 72.1678 32.1743V36.7968H70.188Z" fill="#FCFCFC"/>
<path d="M80.434 36.9641C79.9423 36.9732 79.4536 36.8829 78.9966 36.6985C78.5917 36.532 78.2281 36.2765 77.9319 35.9505C77.6318 35.6114 77.4078 35.2101 77.2755 34.7745C76.9839 33.7696 76.9816 32.701 77.2688 31.6948C77.3985 31.2606 77.6166 30.859 77.9089 30.5158C78.1937 30.1884 78.5488 29.9318 78.9468 29.7658C79.3932 29.5819 79.8718 29.4916 80.3535 29.5003C80.8672 29.4867 81.3775 29.5891 81.8475 29.7999C82.2428 29.9838 82.5908 30.2581 82.8643 30.6014C83.132 30.945 83.3277 31.3406 83.4392 31.7638C83.5612 32.2134 83.6221 32.6778 83.6203 33.1442V33.7424H79.1068V33.8504C79.1068 34.3173 79.2317 34.6882 79.4815 34.9632C79.7313 35.2381 80.1245 35.375 80.6611 35.3737C81.0136 35.3865 81.3623 35.2971 81.6664 35.1159C81.9297 34.9455 82.1722 34.744 82.3889 34.5157L83.3808 35.7696C83.0479 36.1576 82.6273 36.458 82.1551 36.645C81.6074 36.8641 81.0227 36.9725 80.434 36.9641ZM80.3938 30.9818C79.9926 30.9818 79.6779 31.1153 79.4499 31.3825C79.2218 31.6497 79.1078 32.0064 79.1078 32.4525V32.5615H81.5725V32.4389C81.5725 32.0038 81.4766 31.6526 81.285 31.3854C81.0933 31.1183 80.7963 30.9824 80.3938 30.9779V30.9818Z" fill="#FCFCFC"/>
<path d="M86.7424 36.9641C86.064 36.9641 85.4925 36.8529 85.0281 36.6304C84.5553 36.4024 84.1319 36.0813 83.7823 35.6859L84.9476 34.4894C85.1838 34.7593 85.4651 34.9849 85.7784 35.1558C86.097 35.3221 86.4513 35.406 86.8095 35.3999C87.2024 35.3999 87.4746 35.339 87.626 35.217C87.7 35.1586 87.7592 35.0831 87.7989 34.9969C87.8385 34.9106 87.8575 34.8161 87.8541 34.7209C87.8541 34.3857 87.6174 34.1859 87.144 34.1217L86.3773 34.0245C84.7962 33.826 84.0059 33.0919 84.0065 31.8222C84.0018 31.4969 84.0672 31.1745 84.1982 30.8777C84.3258 30.5948 84.5133 30.3441 84.7473 30.1432C85.0018 29.9296 85.2947 29.7681 85.6097 29.6676C85.9756 29.5496 86.3577 29.4921 86.7415 29.4973C87.0666 29.4942 87.3913 29.5193 87.7122 29.5722C87.9698 29.6154 88.2215 29.6885 88.4626 29.7901C88.6767 29.8828 88.8791 30.0014 89.0653 30.1432C89.2546 30.2895 89.4357 30.4464 89.6077 30.6131L88.4693 31.7949C88.2504 31.5717 87.994 31.3899 87.7122 31.258C87.4422 31.1301 87.1478 31.0637 86.8498 31.0634C86.5096 31.0634 86.2691 31.1179 86.1263 31.2269C86.0581 31.2759 86.003 31.3412 85.9657 31.4171C85.9284 31.4929 85.9101 31.5769 85.9126 31.6617C85.9076 31.742 85.9186 31.8225 85.9449 31.8984C85.9712 31.9742 86.0124 32.0439 86.0659 32.1033C86.1687 32.2077 86.363 32.2823 86.6485 32.327L87.4391 32.436C88.9839 32.6448 89.7563 33.3611 89.7563 34.5848C89.7594 34.9146 89.6859 35.2405 89.5416 35.5361C89.3939 35.8277 89.1848 36.0827 88.9293 36.2832C88.6454 36.5068 88.323 36.6751 87.9786 36.7793C87.5782 36.904 87.1613 36.9663 86.7424 36.9641Z" fill="#FCFCFC"/>
<path d="M92.7289 36.9641C92.0504 36.9641 91.479 36.8529 91.0145 36.6304C90.5419 36.4021 90.1185 36.0811 89.7687 35.6859L90.934 34.4894C91.1703 34.7593 91.4515 34.9849 91.7649 35.1558C92.0836 35.3219 92.4377 35.4058 92.796 35.3999C93.1889 35.3999 93.4613 35.339 93.6134 35.217C93.6872 35.1584 93.7462 35.0829 93.7857 34.9967C93.8251 34.9104 93.8439 34.816 93.8405 34.7209C93.8405 34.3857 93.6041 34.1859 93.1314 34.1217L92.3647 34.0245C90.7842 33.826 89.9939 33.0919 89.9939 31.8222C89.9888 31.4969 90.0542 31.1744 90.1856 30.8776C90.3125 30.5944 90.5001 30.3435 90.7347 30.1432C90.9876 29.9304 91.2784 29.7689 91.5914 29.6676C91.9572 29.5496 92.3394 29.4922 92.7231 29.4973C93.0486 29.4942 93.3736 29.5193 93.6948 29.5722C93.952 29.6155 94.2035 29.6886 94.4442 29.7901C94.6585 29.8826 94.8609 30.0012 95.047 30.1432C95.2364 30.2897 95.4177 30.4466 95.5903 30.6131L94.4509 31.7949C94.2322 31.572 93.9762 31.3902 93.6948 31.258C93.4247 31.1302 93.1304 31.0638 92.8324 31.0634C92.4932 31.0634 92.252 31.1179 92.1089 31.2269C92.0407 31.2759 91.9856 31.3412 91.9483 31.417C91.911 31.4929 91.8928 31.5769 91.8952 31.6617C91.8902 31.742 91.9012 31.8225 91.9275 31.8983C91.9539 31.9742 91.995 32.0439 92.0485 32.1033C92.1507 32.2077 92.3449 32.2823 92.6311 32.327L93.4217 32.436C94.9665 32.6448 95.7389 33.361 95.7389 34.5848C95.7423 34.9145 95.6691 35.2404 95.5252 35.5361C95.3787 35.8268 95.1717 36.0817 94.9186 36.2832C94.6347 36.5068 94.3124 36.675 93.968 36.7793C93.5666 36.9043 93.1488 36.9667 92.7289 36.9641Z" fill="#FCFCFC"/>
<path d="M101.866 36.9641C101.108 36.9641 100.461 36.8166 99.9247 36.5215C99.3856 36.2242 98.9188 35.8084 98.5582 35.3046L99.389 34.5974C99.6828 35.0081 100.057 35.3531 100.487 35.611C100.922 35.8501 101.412 35.9695 101.906 35.9573C102.576 35.9573 103.087 35.7952 103.44 35.4709C103.792 35.1467 103.969 34.7115 103.969 34.1655C103.969 33.7116 103.835 33.3627 103.567 33.1188C103.299 32.875 102.857 32.6805 102.241 32.5352L101.474 32.3582C100.618 32.1591 99.9633 31.8579 99.5117 31.4545C99.06 31.0511 98.8364 30.4824 98.8409 29.7483C98.834 29.3642 98.9116 28.9834 99.068 28.6335C99.2142 28.3147 99.4322 28.0351 99.7043 27.8174C99.9962 27.5906 100.328 27.4223 100.682 27.3213C101.089 27.2039 101.511 27.1466 101.934 27.1511C102.637 27.1511 103.242 27.2808 103.749 27.5402C104.263 27.8122 104.703 28.2092 105.029 28.6958L104.185 29.3222C103.938 28.9707 103.618 28.6782 103.247 28.4653C102.881 28.2571 102.426 28.1527 101.882 28.152C101.283 28.152 100.812 28.2817 100.468 28.5411C100.124 28.8005 99.9515 29.1867 99.9496 29.6997C99.9496 30.1536 100.095 30.4957 100.385 30.7259C100.675 30.9561 101.115 31.1397 101.704 31.2765L102.471 31.4535C103.391 31.6617 104.056 31.9788 104.467 32.4049C104.878 32.8309 105.083 33.3977 105.083 34.1052C105.089 34.5103 105.013 34.9124 104.862 35.2871C104.721 35.632 104.504 35.9393 104.226 36.1849C103.929 36.4408 103.585 36.6348 103.214 36.7559C102.779 36.8994 102.324 36.9698 101.866 36.9641Z" fill="#FCFCFC"/>
<path d="M108.815 36.9641C108.37 36.9693 107.929 36.8798 107.52 36.7014C107.145 36.5356 106.813 36.2843 106.549 35.967C106.274 35.6271 106.069 35.234 105.947 34.8114C105.669 33.816 105.669 32.7621 105.947 31.7667C106.068 31.3441 106.273 30.9509 106.549 30.6111C106.813 30.2935 107.145 30.0422 107.52 29.8767C107.931 29.699 108.373 29.6108 108.82 29.618C109.507 29.618 110.058 29.7697 110.474 30.0732C110.887 30.3744 111.209 30.7863 111.405 31.2629L110.507 31.7259C110.397 31.3843 110.181 31.0882 109.891 30.8825C109.572 30.6737 109.198 30.5695 108.82 30.5839C108.531 30.5776 108.244 30.6305 107.975 30.7395C107.745 30.8371 107.539 30.986 107.372 31.1753C107.208 31.3693 107.085 31.5959 107.011 31.8407C106.929 32.1161 106.888 32.4029 106.891 32.6908V33.8863C106.891 34.5037 107.054 35.0092 107.38 35.4028C107.706 35.7965 108.185 35.9936 108.818 35.9943C109.684 35.9943 110.309 35.5864 110.693 34.7706L111.47 35.3007C111.259 35.7935 110.913 36.2138 110.472 36.5108C110.028 36.813 109.476 36.9641 108.815 36.9641Z" fill="#FCFCFC"/>
<path d="M112.312 26.7357H113.383V30.9098H113.437C113.589 30.5372 113.837 30.2124 114.153 29.9682C114.461 29.7347 114.874 29.618 115.391 29.618C116.106 29.618 116.671 29.8514 117.087 30.3183C117.502 30.7853 117.71 31.4445 117.71 32.2959V36.7968H116.638V32.4769C116.638 31.2149 116.116 30.5839 115.07 30.5839C114.86 30.5835 114.651 30.6107 114.448 30.6646C114.255 30.7162 114.072 30.7993 113.906 30.9107C113.748 31.0163 113.616 31.1587 113.523 31.3261C113.426 31.5077 113.377 31.7119 113.382 31.9185V36.7968H112.312V26.7357Z" fill="#FCFCFC"/>
<path d="M121.861 36.9641C121.423 36.9695 120.99 36.8813 120.588 36.7053C120.209 36.537 119.873 36.2835 119.604 35.9641C119.321 35.624 119.105 35.2316 118.968 34.8085C118.664 33.8237 118.664 32.7681 118.968 31.7833C119.104 31.3577 119.32 30.9629 119.604 30.6208C119.873 30.302 120.209 30.0489 120.588 29.8806C120.99 29.7046 121.423 29.6164 121.861 29.6218C122.296 29.6161 122.728 29.7043 123.127 29.8806C123.504 30.0515 123.84 30.3041 124.111 30.6208C124.398 30.9618 124.617 31.3568 124.754 31.7833C125.057 32.7683 125.057 33.8235 124.754 34.8085C124.616 35.2325 124.397 35.6251 124.111 35.9641C123.84 36.2814 123.504 36.5345 123.127 36.7053C122.728 36.8816 122.296 36.9698 121.861 36.9641ZM121.861 35.9981C122.44 35.9981 122.913 35.8169 123.28 35.4544C123.647 35.0919 123.83 34.539 123.829 33.7959V32.7862C123.829 32.043 123.646 31.4902 123.28 31.1276C122.914 30.7651 122.441 30.5839 121.861 30.5839C121.28 30.5839 120.807 30.7651 120.441 31.1276C120.075 31.4902 119.892 32.043 119.892 32.7862V33.792C119.892 34.5352 120.075 35.088 120.441 35.4505C120.807 35.813 121.28 35.9933 121.861 35.9913V35.9981Z" fill="#FCFCFC"/>
<path d="M128.692 36.9641C128.255 36.9696 127.821 36.8814 127.42 36.7053C127.041 36.537 126.704 36.2836 126.435 35.9641C126.152 35.6238 125.936 35.2315 125.799 34.8085C125.496 33.8235 125.496 32.7683 125.799 31.7833C125.935 31.3579 126.151 30.9632 126.435 30.6209C126.704 30.302 127.041 30.0489 127.42 29.8806C127.821 29.7045 128.255 29.6164 128.692 29.6219C129.127 29.6159 129.558 29.7041 129.957 29.8806C130.335 30.0515 130.671 30.3041 130.942 30.6209C131.229 30.9615 131.448 31.3566 131.585 31.7833C131.887 32.7683 131.887 33.8235 131.585 34.8085C131.447 35.2327 131.228 35.6253 130.942 35.9641C130.671 36.2814 130.335 36.5345 129.957 36.7053C129.558 36.8818 129.127 36.97 128.692 36.9641ZM128.692 35.9982C129.272 35.9982 129.746 35.8169 130.112 35.4544C130.478 35.0919 130.661 34.5391 130.661 33.7959V32.7862C130.661 32.043 130.478 31.4902 130.112 31.1277C129.746 30.7652 129.272 30.5839 128.692 30.5839C128.111 30.5839 127.637 30.7652 127.271 31.1277C126.905 31.4902 126.723 32.043 126.723 32.7862V33.792C126.723 34.5352 126.906 35.088 127.271 35.4505C127.637 35.813 128.11 35.9933 128.692 35.9914V35.9982Z" fill="#FCFCFC"/>
<path d="M134.048 36.7968C133.674 36.7968 133.391 36.6901 133.198 36.4768C133.004 36.2549 132.901 35.9654 132.911 35.6684V26.7357H133.983V35.8318H135.001V36.7968H134.048Z" fill="#FCFCFC"/>
</g>
<defs>
<clipPath id="clip0_8_87">
<rect width="135" height="40" fill="white"/>
</clipPath>
</defs>
</svg>
