<?xml version="1.0" encoding="utf-8"?>
<!-- Generator: Adobe Illustrator 27.4.0, SVG Export Plug-In . SVG Version: 6.00 Build 0)  -->
<svg version="1.1" id="Layer_1" xmlns="http://www.w3.org/2000/svg" xmlns:xlink="http://www.w3.org/1999/xlink" x="0px" y="0px"
	 viewBox="0 0 105 20" style="enable-background:new 0 0 105 20;" xml:space="preserve">
<style type="text/css">
	.st0{fill-rule:evenodd;clip-rule:evenodd;fill:#FFFFFF;}
</style>
<path class="st0" d="M74.1,17.9h-2.6l7.7-14.7h0.4h2.2h0.4l7.7,14.7h-2.6l-2-3.9h-9.1L74.1,17.9z M84.3,12.2l-3.6-6.9l-3.6,6.9
	L84.3,12.2L84.3,12.2z M62.1,2.8l1.8-2h4L62.1,2.8z M57,18h13.5v-1.7H59.4v-5.1h8.3V9.5h-8.3V4.9h11.1V3.2H57L57,18L57,18z
	 M38.7,3.2h2.1h7.9c2.7,0,4.8,1.9,4.8,4.3c0,2-1.7,3.8-3.8,4.2l4.7,6.3h-2.7l-4.6-6.2h-6.2v6.2h-2.1v-6.2L38.7,3.2L38.7,3.2z
	 M48.7,5l0.1,0L49,5l0.1,0l0.1,0l0.1,0l0.1,0.1l0.1,0.1l0.1,0.1l0.1,0.1L50,5.5l0.1,0.1l0.1,0.1l0.1,0.1l0.1,0.1l0.1,0.1L50.5,6
	l0.1,0.1l0.1,0.1l0.1,0.1l0.1,0.1l0.1,0.1l0,0.1l0,0.1l0,0.1l0,0.1L51,7l0,0.1l0,0.1l0,0.1v0.1v0.1l0,0.1l0,0.1L51,8l0,0.1l0,0.1
	l0,0.1l0,0.1l0,0.1l-0.1,0.1l-0.1,0.1l-0.1,0.1l-0.1,0.1L50.5,9l-0.1,0.1l-0.1,0.1l-0.1,0.1l-0.1,0.1l-0.1,0.1L50,9.5l-0.1,0.1
	l-0.1,0.1l-0.1,0.1l-0.1,0.1l-0.1,0.1l-0.1,0l-0.1,0L49,10l-0.1,0l-0.1,0l-0.1,0h-0.2h-7.5V5h7.5h0.2H48.7z M25.7,2.4
	c-4.3,0-7.7,3.4-7.7,7.5c0,4.2,3.5,7.5,7.7,7.5s7.7-3.4,7.7-7.5C33.5,5.7,30,2.4,25.7,2.4z M25.7,0.7c-5.7,0-10.3,4.1-10.3,9.2
	c0,5.1,4.6,9.2,10.3,9.2S36,15,36,9.9C36,4.8,31.4,0.7,25.7,0.7z M0.4,18V3.2h1.9v13.1h11.4V18H0.4z M91,18h13.6v-1.7H93.2V3.2H91
	V18z M9.8,8.4h1.8l2.7-5H12L9.8,8.4z"/>
</svg>
