<?xml version="1.0" encoding="utf-8"?>
<!-- Generator: Adobe Illustrator 27.4.0, SVG Export Plug-In . SVG Version: 6.00 Build 0)  -->
<svg version="1.1" id="Layer_1" xmlns="http://www.w3.org/2000/svg" xmlns:xlink="http://www.w3.org/1999/xlink" x="0px" y="0px"
	 viewBox="0 0 78 77" style="enable-background:new 0 0 78 77;" xml:space="preserve">
<style type="text/css">
	.st0{clip-path:url(#SVGID_00000011751812663020089620000012471455892732701863_);}
	.st1{fill:#FFFFFF;}
</style>
<g>
	<defs>
		<rect id="SVGID_1_" y="0" width="78" height="77"/>
	</defs>
	<clipPath id="SVGID_00000055669054446195699170000009176484154794902434_">
		<use xlink:href="#SVGID_1_"  style="overflow:visible;"/>
	</clipPath>
	
		<g id="Mask_Group_15" transform="translate(0 0)" style="clip-path:url(#SVGID_00000055669054446195699170000009176484154794902434_);">
		<g id="g4" transform="translate(-0.094 30.639)">
			<path id="path2" class="st1" d="M77.8,0.3H76c-0.4-0.1-0.8,0.2-0.9,0.6c0,0.1,0,0.1,0,0.2v5.3c0,2-1,3-2.6,3
				c-1.6,0-2.4-1-2.4-2.8V1.1c0.1-0.4-0.2-0.8-0.6-0.9c-0.1,0-0.1,0-0.2,0h-1.8c-0.4-0.1-0.8,0.2-0.9,0.6c0,0.1,0,0.1,0,0.2v5.7
				c0,3.6,1.8,5.5,4.7,5.5c1.5,0.1,2.9-0.5,3.8-1.7l0.1,0.7c0.1,0.4,0.4,0.7,0.9,0.7h1.3c0.4,0.1,0.8-0.2,0.9-0.6c0-0.1,0-0.1,0-0.2
				V1.1C78.5,0.6,78.2,0.3,77.8,0.3z M65.3,9H62c-0.8,0.1-1.6-0.5-1.7-1.3c0-0.1,0-0.3,0-0.4V1.1c0.1-0.4-0.2-0.8-0.6-0.9
				c-0.1,0-0.1,0-0.2,0h-1.8c-0.4-0.1-0.8,0.2-0.9,0.6c0,0.1,0,0.1,0,0.2v6.5c-0.2,2.3,1.5,4.2,3.8,4.4c0.2,0,0.4,0,0.6,0h4.1
				c0.4,0.1,0.8-0.2,0.9-0.6c0-0.1,0-0.1,0-0.2V9.8C66.2,9.4,65.9,9,65.5,9C65.4,9,65.4,9,65.3,9L65.3,9z M13.5,1
				c0.1-0.4-0.2-0.8-0.6-0.9c-0.1,0-0.1,0-0.2,0h-1.3c-0.4,0-0.8,0.2-1,0.6L7.1,6.4l-3-5.5c-0.2-0.4-0.6-0.6-1-0.6H1.7
				C1.3,0.2,0.9,0.5,0.8,0.9c0,0.1,0,0.1,0,0.2L0,11.2c0,0.6,0.3,0.9,0.7,0.9h1.6c0.4,0.1,0.8-0.2,0.9-0.6c0-0.1,0-0.1,0-0.2
				l0.4-5.7l2,3.6c0.2,0.4,0.6,0.6,1,0.6h1.1c0.4,0,0.8-0.2,1-0.6L11,5.3l0.3,6c-0.1,0.4,0.2,0.8,0.6,0.9c0.1,0,0.1,0,0.2,0h1.7
				c0.6,0,0.9-0.3,0.7-0.9L13.5,1z M54.6,0.3h-1.4c-0.4,0-0.8,0.3-0.9,0.7l-0.1,0.6c-1-1-2.4-1.6-3.8-1.6c-3.3,0-5.5,2.6-5.5,6.1
				s2.3,6.3,5.4,6.3c1.6,0,3-0.6,4.1-1.7l0.1,0.7c0.1,0.4,0.4,0.7,0.9,0.7h1.3c0.4,0.1,0.8-0.2,0.9-0.6c0-0.1,0-0.1,0-0.2V1.1
				c0.1-0.4-0.2-0.8-0.6-0.9C54.8,0.3,54.7,0.3,54.6,0.3L54.6,0.3z M49.2,9.4c-1.6,0.1-2.9-1.2-3-2.8c0-0.1,0-0.3,0-0.4
				c0-2,1.1-3.3,3-3.3c1.6-0.1,2.9,1.2,3,2.8c0,0.1,0,0.3,0,0.4C52.1,8.1,50.9,9.4,49.2,9.4L49.2,9.4z M40.8,0.3h-1.4
				c-0.4,0-0.8,0.3-0.9,0.7l-0.1,0.6c-1-1-2.4-1.6-3.8-1.6C31.3,0,29,2.4,29,6c0,3.4,2.1,5.8,5.4,5.8c1.5,0,3-0.6,4-1.7v0.6
				c0,2-1.1,3.3-3.6,3.3c-1,0-2-0.2-2.8-0.6c-0.3-0.2-0.8-0.2-1.1,0.2c0,0,0,0.1-0.1,0.1l-0.7,1.3c-0.2,0.3-0.2,0.8,0.2,1.1
				c0,0,0.1,0,0.1,0.1c1.4,0.7,3,1.1,4.6,1.1c4,0,6.5-2.6,6.5-6V1.1c0.1-0.3-0.1-0.7-0.4-0.8C41,0.3,40.9,0.3,40.8,0.3L40.8,0.3z
				 M35.3,9c-1.6,0.1-2.9-1.1-3-2.7c0-0.1,0-0.2,0-0.3c-0.1-1.6,1.1-2.9,2.7-3c0.1,0,0.2,0,0.3,0c1.5-0.1,2.9,1,3,2.5
				c0,0.2,0,0.3,0,0.5c0,1.6-1.2,2.9-2.8,3C35.4,9,35.3,9,35.3,9z M27,0.3h-1.4c-0.4,0-0.8,0.3-0.9,0.7l-0.1,0.6
				c-1-1-2.4-1.6-3.8-1.6c-3.3,0-5.5,2.6-5.5,6.1s2.3,6.3,5.4,6.3c1.6,0,3-0.6,4.1-1.7l0.1,0.7c0,0.4,0.3,0.7,0.6,0.7
				c0,0,0.1,0,0.1,0h1.3c0.4,0.1,0.8-0.2,0.9-0.6c0-0.1,0-0.1,0-0.2V1.1c0.1-0.4-0.1-0.7-0.4-0.8C27.2,0.3,27.1,0.3,27,0.3z
				 M21.5,9.4c-1.6,0.1-2.9-1.2-3-2.8c0-0.1,0-0.3,0-0.4c0-2,1.1-3.3,3-3.3c1.6-0.1,2.9,1.2,3,2.8c0,0.1,0,0.3,0,0.4
				C24.5,8.1,23.3,9.4,21.5,9.4z"/>
		</g>
	</g>
</g>
</svg>
