<?xml version="1.0" encoding="utf-8"?>
<!-- Generator: Adobe Illustrator 27.4.0, SVG Export Plug-In . SVG Version: 6.00 Build 0)  -->
<svg version="1.1" id="Layer_1" xmlns="http://www.w3.org/2000/svg" xmlns:xlink="http://www.w3.org/1999/xlink" x="0px" y="0px"
	 viewBox="0 0 55 55" style="enable-background:new 0 0 55 55;" xml:space="preserve">
<style type="text/css">
	.st0{clip-path:url(#SVGID_00000020362870461335909740000013244584099913666438_);}
	.st1{fill:#FFFFFF;}
</style>
<g>
	<defs>
		<rect id="SVGID_1_" y="0" width="55" height="55"/>
	</defs>
	<clipPath id="SVGID_00000124863972856996976940000010109880625685406853_">
		<use xlink:href="#SVGID_1_"  style="overflow:visible;"/>
	</clipPath>
	
		<g id="Mask_Group_16" transform="translate(0 0)" style="clip-path:url(#SVGID_00000124863972856996976940000010109880625685406853_);">
		<g id="Mc_Donalds" transform="translate(0.848 4.969)">
			<path id="Path_442" class="st1" d="M26.6,16c0.4-1.2,0.7-2.3,1.1-3.5c0.8-2.4,1.9-4.8,3.2-6.9c0.9-1.5,2-2.8,3.3-4
				c0.9-0.7,1.9-1.3,3.1-1.5c1.3-0.2,2.6,0,3.7,0.7c1.2,0.8,2.3,1.8,3.2,3c1.5,2,2.6,4.2,3.5,6.6c1.2,3.2,2.2,6.4,2.9,9.7
				c0.5,2.4,1,4.8,1.3,7.3c0.3,1.9,0.5,3.8,0.7,5.7c0.3,2.8,0.5,5.6,0.6,8.4c0.1,1.6,0.1,3.2,0.1,4.9c0,0.2,0,0.2-0.2,0.2
				c-2.1,0-4.2,0-6.3,0c-0.2,0-0.2-0.1-0.2-0.2c0-1.5,0-3,0-4.6c0-2.5-0.1-5.1-0.3-7.6c-0.1-1.6-0.2-3.2-0.3-4.8s-0.3-3.2-0.5-4.8
				c-0.2-1.8-0.4-3.6-0.7-5.4C44.1,15.3,43.3,11.6,42,8c-0.4-1.1-0.9-2.2-1.6-3.3C40.2,4.5,40,4.3,39.8,4c-0.7-0.9-2-1-2.9-0.3
				c-0.1,0.1-0.1,0.1-0.2,0.2c-0.7,0.7-1.3,1.6-1.7,2.5c-0.9,1.9-1.5,3.8-2,5.8c-0.6,2.6-1.2,5.2-1.5,7.9c-0.4,2.5-0.7,5-0.9,7.5
				c-0.1,1.5-0.2,3.1-0.3,4.6c-0.2,3.5-0.3,7.1-0.3,10.6c0,0.2,0,0.2-0.2,0.2c-2.1,0-4.2,0-6.3,0c-0.2,0-0.2-0.1-0.2-0.2
				c0-1.4,0-2.9,0-4.3c-0.1-2.3-0.2-4.7-0.3-7c-0.1-1.9-0.3-3.9-0.5-5.8c-0.4-4.5-1.1-9-2.2-13.4c-0.5-2-1.1-4-2-5.9
				c-0.4-0.8-0.9-1.6-1.5-2.3c-0.2-0.2-0.4-0.4-0.6-0.5c-0.7-0.6-1.8-0.6-2.5,0.1C13,4.4,12.4,5.2,12,6c-0.8,1.6-1.4,3.3-1.8,5
				c-0.7,2.5-1.2,5-1.6,7.5c-0.3,1.9-0.6,3.8-0.8,5.7c-0.2,1.4-0.3,2.8-0.4,4.3c-0.2,2-0.3,4-0.4,6c-0.1,1.4-0.1,2.9-0.2,4.3
				c-0.1,2.5-0.1,5-0.1,7.4c0,0.2,0,0.2-0.2,0.2c-2.1,0-4.2,0-6.3,0c-0.2,0-0.2,0-0.2-0.2c0-2.3,0.1-4.7,0.2-7
				c0.1-1.7,0.2-3.3,0.3-5c0.2-2.1,0.4-4.1,0.7-6.2c0.5-3.5,1.1-6.9,2-10.4c0.8-3.4,2-6.7,3.4-9.8c0.8-1.8,1.9-3.5,3.1-5.1
				c0.7-0.9,1.6-1.7,2.6-2.2c1.7-1,3.9-0.9,5.6,0.2c1.2,0.7,2.2,1.7,3.1,2.8c1.3,1.7,2.3,3.5,3.1,5.4c0.9,2.1,1.7,4.3,2.3,6.6
				C26.5,15.8,26.5,15.9,26.6,16z"/>
		</g>
	</g>
</g>
</svg>
