<?xml version="1.0" encoding="utf-8"?>
<!-- Generator: Adobe Illustrator 27.4.0, SVG Export Plug-In . SVG Version: 6.00 Build 0)  -->
<svg version="1.1" id="Layer_1" xmlns="http://www.w3.org/2000/svg" xmlns:xlink="http://www.w3.org/1999/xlink" x="0px" y="0px"
	 viewBox="0 0 68 69" style="enable-background:new 0 0 68 69;" xml:space="preserve">
<style type="text/css">
	.st0{clip-path:url(#SVGID_00000132058377300421383160000005108134262957812393_);}
	.st1{fill-rule:evenodd;clip-rule:evenodd;fill:#FFFFFF;}
</style>
<g>
	<defs>
		<rect id="SVGID_1_" y="0" width="68" height="69"/>
	</defs>
	<clipPath id="SVGID_00000142153588002816781650000017616636235523688881_">
		<use xlink:href="#SVGID_1_"  style="overflow:visible;"/>
	</clipPath>
	
		<g id="Mask_Group_17" transform="translate(-0.181 0.408)" style="clip-path:url(#SVGID_00000142153588002816781650000017616636235523688881_);">
		<g id="nestle" transform="translate(0.402 25.033)">
			<path id="Path_443" class="st1" d="M28.4,11.3c0-3.8-2.7-6.8-6.3-6.8c-3.8,0.2-6.7,3.4-6.5,7.1c0.2,3.5,3,6.4,6.5,6.5
				c2.9,0.2,5.4-1.7,6.1-4.5l0,0l-3,0l0,0c-0.6,1.2-1.8,1.9-3.1,1.9c-1.7-0.1-3.1-1.5-3.4-3.2h9.6C28.3,12,28.4,11.7,28.4,11.3
				L28.4,11.3z M18.7,10c0.3-1.6,1.7-2.8,3.3-2.9c1.6,0.1,2.9,1.3,3.1,2.9l0,0L18.7,10L18.7,10z"/>
			<path id="Path_444" class="st1" d="M67.4,11.3c0-3.8-2.7-6.8-6.3-6.8c-3.8,0.2-6.7,3.4-6.5,7.1c0.2,3.5,3,6.4,6.5,6.5
				c3.3,0,5.4-1.5,6.1-4.5l0,0l-3,0l0,0c-0.6,1.2-1.8,1.9-3.1,1.9c-1.7-0.1-3.1-1.5-3.4-3.2h9.6C67.4,12,67.4,11.7,67.4,11.3
				L67.4,11.3z M57.8,10c0.3-1.6,1.7-2.8,3.3-2.9c1.6,0.1,2.9,1.3,3.1,2.9l0,0L57.8,10L57.8,10z"/>
			<path id="Path_445" class="st1" d="M40.3,0.2H10.8v12.3h-0.1L3.3,0.2H0v17.6h3.4V6.2h0l7.1,11.6h3.6v-15h26.2L40.3,0.2L40.3,0.2z
				"/>
			<path id="Path_446" class="st1" d="M32.5,8.1c0-0.6,0.6-1.6,2.5-1.6c1.3-0.1,2.4,0.7,2.7,2h2.8c-0.3-3.3-3.2-4.3-5.7-4.3
				c-4,0-5.2,2.6-5.2,4.5c0,4.8,8.2,2.9,8.2,5.5c0,1.1-0.7,1.6-2.8,1.6c-2.1,0-2.8-1.1-2.8-2.2h-2.7c0.1,3.4,2.7,4.5,5.6,4.5
				c2.5,0,5.8-0.7,5.8-4.5C40.8,8.7,32.4,10.6,32.5,8.1L32.5,8.1z"/>
			<path id="Path_447" class="st1" d="M45.4,0.2h-3.2v4.9h-1v2.4h1V13l0,0c0,1.7,1.3,4.7,4.2,4.7c0.6,0,2-0.1,2-0.1l0,0v-2.3l-0.7,0
				l0,0c-1.2-0.1-2.3-0.7-2.3-2.8l0,0V7.5h3V5.1h-3V0.2L45.4,0.2z"/>
			<path id="Path_448" class="st1" d="M49.9,17.8h3.4V0.2h-3.4V17.8z"/>
			<path id="Path_449" class="st1" d="M66.7,0L55.3,1.3v1.4h11.4V0z"/>
		</g>
	</g>
</g>
</svg>
