<?xml version="1.0" encoding="utf-8"?>
<!-- Generator: Adobe Illustrator 27.4.0, SVG Export Plug-In . SVG Version: 6.00 Build 0)  -->
<svg version="1.1" id="Group_124" xmlns="http://www.w3.org/2000/svg" xmlns:xlink="http://www.w3.org/1999/xlink" x="0px" y="0px"
	 viewBox="0 0 354.5 55.1" style="enable-background:new 0 0 354.5 55.1;" xml:space="preserve">
<style type="text/css">
	.st0{fill:#FFFFFF;}
</style>
<path id="Path_127" class="st0" d="M43.7,33.4C40.5,42.4,30.6,47,21.6,43.7c-4.8-1.7-8.5-5.5-10.3-10.3c-0.3-0.7,0.1-1.5,0.8-1.8
	c0,0,0.1,0,0.1,0l5.7-1.5c0.7-0.2,1.4,0.2,1.6,0.8c1.8,4.4,6.9,6.4,11.3,4.6c2.1-0.9,3.7-2.5,4.6-4.6c0.3-0.6,1-1,1.6-0.8l5.7,1.5
	c0.7,0.2,1.2,1,1,1.7C43.7,33.4,43.7,33.4,43.7,33.4L43.7,33.4z M34.4,0H20.7C9.2,0,0,9.2,0,20.7v13.8c0,11.4,9.2,20.7,20.7,20.7
	h13.8c11.4,0,20.7-9.2,20.7-20.7V20.7C55.1,9.2,45.8,0,34.4,0C34.4,0,34.4,0,34.4,0z"/>
<g id="Group_123">
	<path id="Path_129" class="st0" d="M81.4,18.8c2.6,0,4.8,2.1,4.8,4.8s-2.1,4.8-4.8,4.8h-1.5c-0.1,0-0.2,0-0.3,0h-4.4v-9.6
		L81.4,18.8z M68.8,13.6v27.6h6.4v-7.6h5.6c2.2,0,4.3-0.4,6.4-1.2c1.7-0.7,3.1-1.9,4.2-3.5c1-1.6,1.5-3.4,1.5-5.3
		c0.2-3.8-2.1-7.3-5.6-8.8c-2-0.9-4.2-1.3-6.4-1.2L68.8,13.6z M106.8,24.7c3.2,0,5.9,2.6,6,5.8s-2.6,5.9-5.8,6c-0.1,0-0.1,0-0.2,0
		l0,0c-3.2,0-5.9-2.6-6-5.8s2.6-5.9,5.8-6C106.6,24.7,106.7,24.7,106.8,24.7z M112.3,20v2.2c-1.6-1.8-3.9-2.7-6.3-2.6
		c-1.9,0-3.8,0.4-5.4,1.3c-1.6,0.9-2.9,2.2-3.8,3.8c-0.9,1.8-1.4,3.7-1.4,5.7c0,2,0.4,4,1.4,5.7c0.9,1.6,2.2,2.9,3.8,3.8
		c1.7,0.9,3.5,1.4,5.4,1.3c2.5,0.2,5-0.9,6.6-2.8v2.4h5.9V20H112.3z M129.5,22.8c0.8-1,1.8-1.8,3-2.3c1.4-0.5,2.8-0.8,4.3-0.8v5.7
		c-0.5,0-0.9-0.1-1.4-0.1c-1.5-0.1-3,0.4-4.1,1.5c-1.1,1.2-1.6,2.8-1.5,4.4v10h-6.1V20h5.9L129.5,22.8z M183.1,32c0-0.1,0-0.1,0-0.2
		v-2.4c0-2.6-2.1-4.7-4.7-4.7c-2.6,0-4.7,2.1-4.7,4.7v2.4c0,0.1,0,0.1,0,0.2v9.2h-6.1V20h5.9v2.5c0.8-0.9,1.9-1.6,3-2.1
		c1.3-0.5,2.6-0.7,4-0.7c2.4-0.1,4.6,0.7,6.4,2.4c1.6,1.6,2.4,3.9,2.4,7v12.1h-6.1L183.1,32z M204.9,11.8h10.7l-6.5,4h-8L204.9,11.8
		z M238.4,18.8c1.7,0,3.1,1.4,3.1,3.1c0,1.7-1.4,3-3.1,3h-7.9v-6.1H238.4z M239.3,29.6c1.9,0,3.5,1.6,3.5,3.5s-1.6,3.5-3.5,3.5l0,0
		h-8.9v-6.9L239.3,29.6z M244.2,26.9c2.3-1.1,3.7-3.5,3.7-6.1c0.1-2.1-1-4.1-2.7-5.2c-1.8-1.3-4.4-1.9-7.7-1.9H224v27.5h14.2
		c3.6,0,6.3-0.7,8.2-2c1.8-1.2,2.9-3.3,2.8-5.6c0.1-1.5-0.4-3.1-1.3-4.3C247,28.1,245.7,27.3,244.2,26.9L244.2,26.9z M318.8,24.7
		c-0.2,0-0.3,0-0.5,0l0,0c-0.6,0-1.2,0.1-1.8,0.3c-0.8,0.3-1.5,0.7-2.1,1.3c-0.3,0.3-0.5,0.6-0.7,0.9c-0.6,0.9-0.9,1.9-0.9,3v0.9
		c0,3,2.4,5.4,5.4,5.4c0,0,0,0,0,0l0,0c0.3,0,0.6,0,0.9-0.1c1.7-0.2,3.2-1.3,4-2.9l4.8,2.6c-0.8,1.7-2,3.1-3.6,3.9
		c-1.8,1-3.8,1.5-5.8,1.4c-2.1,0-4.2-0.4-6.1-1.4c-1.7-0.9-3.2-2.2-4.2-3.9c-1-1.7-1.5-3.6-1.5-5.6c0-2,0.5-3.9,1.5-5.6
		c1-1.7,2.5-3,4.2-3.9c1.9-1,4-1.4,6.1-1.4c2,0,4.1,0.4,5.8,1.4c1.6,0.9,2.9,2.3,3.6,4l-4.8,2.6C322.3,25.9,320.6,24.8,318.8,24.7
		L318.8,24.7z M337,30.6c0-3.2,2.6-5.9,5.9-5.9c3.2,0,5.9,2.6,5.9,5.9c0,3.2-2.6,5.9-5.9,5.9C339.6,36.5,337,33.8,337,30.6z
		 M348.9,40.1c1.7-0.9,3.1-2.2,4.1-3.9c1-1.7,1.5-3.7,1.5-5.6c0-2-0.5-3.9-1.5-5.6c-1-1.6-2.4-3-4.1-3.9c-3.8-1.9-8.2-1.9-12,0
		c-1.7,0.9-3.2,2.2-4.2,3.9c-1,1.7-1.5,3.6-1.5,5.6c0,2,0.5,3.9,1.5,5.6c1,1.7,2.4,3,4.2,3.9C340.7,42,345.1,42,348.9,40.1
		L348.9,40.1z M150.8,24.7c3.2,0,5.9,2.6,6,5.8s-2.6,5.9-5.8,6c-0.1,0-0.1,0-0.2,0l0,0c-3.2,0-5.9-2.6-6-5.8s2.6-5.9,5.8-6
		C150.7,24.7,150.7,24.7,150.8,24.7z M156.4,20v2.2c-1.6-1.8-3.9-2.7-6.3-2.6c-1.9,0-3.8,0.4-5.4,1.3c-1.6,0.9-2.9,2.2-3.8,3.8
		c-0.9,1.8-1.4,3.7-1.4,5.7c0,2,0.4,4,1.4,5.7c0.9,1.6,2.2,2.9,3.8,3.8c1.7,0.9,3.5,1.4,5.4,1.3c2.5,0.2,5-0.9,6.6-2.8v2.4h5.9V20
		H156.4z M210.2,30.6c0,3.2-2.6,5.9-5.9,5.9c-3.2,0-5.9-2.6-5.9-5.9s2.6-5.9,5.9-5.9C207.6,24.7,210.2,27.3,210.2,30.6
		C210.2,30.6,210.2,30.6,210.2,30.6z M209.9,20v2.2c-1.6-1.8-3.9-2.7-6.3-2.6c-1.9,0-3.8,0.4-5.4,1.3c-1.6,0.9-2.9,2.2-3.8,3.8
		c-0.9,1.8-1.4,3.7-1.4,5.7c0,2,0.4,4,1.4,5.7c0.9,1.6,2.2,2.9,3.8,3.8c1.7,0.9,3.5,1.4,5.4,1.3c2.5,0.2,5-0.9,6.6-2.8v2.4h5.9V20
		H209.9z M264.2,24.7c3.2,0,5.9,2.6,6,5.8c0,3.2-2.6,5.9-5.8,6c-0.1,0-0.1,0-0.2,0l0,0c-3.2,0.1-5.9-2.5-6-5.7s2.5-5.9,5.7-6
		C264,24.7,264.1,24.7,264.2,24.7z M269.8,20v2.2c-1.6-1.8-4-2.7-6.3-2.6c-1.9,0-3.8,0.4-5.4,1.3c-1.6,0.9-2.9,2.2-3.8,3.8
		c-0.9,1.8-1.4,3.7-1.4,5.7c0,2,0.4,4,1.4,5.7c0.9,1.6,2.2,2.9,3.8,3.8c1.7,0.9,3.5,1.4,5.4,1.3c2.5,0.2,5-0.9,6.6-2.8v2.4h5.9V20
		H269.8z M296.6,32c0-0.1,0-0.1,0-0.2v-2.4c0-2.6-2.1-4.7-4.7-4.7c-2.6,0-4.7,2.1-4.7,4.7v2.4c0,0.1,0,0.1,0,0.2v9.2h-6.1V20h5.9
		v2.5c0.8-0.9,1.9-1.6,3-2.1c1.3-0.5,2.6-0.7,4-0.7c2.4-0.1,4.6,0.7,6.4,2.4c1.6,1.6,2.4,3.9,2.4,7v12.1h-6.1L296.6,32z"/>
</g>
</svg>
