<?xml version="1.0" encoding="utf-8"?>
<!-- Generator: Adobe Illustrator 27.4.0, SVG Export Plug-In . SVG Version: 6.00 Build 0)  -->
<svg version="1.1" id="Layer_1" xmlns="http://www.w3.org/2000/svg" xmlns:xlink="http://www.w3.org/1999/xlink" x="0px" y="0px"
	 viewBox="0 0 1597 982" style="enable-background:new 0 0 1597 982;" xml:space="preserve">
<style type="text/css">
	.st0{fill:#FFFFFF;}
	.st1{fill:none;stroke:#FFFFFF;stroke-width:6;}
	.st2{fill-rule:evenodd;clip-rule:evenodd;fill:#FFFFFF;}
</style>
<path class="st0" d="M1219.2,754.4h-72.1V896c0,46.1,49.3,85.6,110.2,85.6c60.9,0,114.2-39.9,114.2-85.6V754.4h-72.1v127.7
	c0,21.1-17.9,38.1-39.9,38.1c-22.4,0-40.3-17-40.3-38.5V754.4z M75,676.5v293.9H0.2V616H135c58.7,0,106.6,47.5,106.6,105.3
	c0,49.3-34.5,90.5-81.1,101.3l103.9,147.8h-89.2l-74.8-116v-84.7H118c27.8,0,50.2-20.6,50.2-46.1c0-25.5-21.1-47-48.8-47H75z
	 M763.6,970.4V598.9h-70.8v175.2c-18.8-18.4-42.6-28.7-69.9-28.7c-58.2,0-105.7,51.5-105.7,115.6c0,63.6,47.5,115.6,105.7,115.6
	c27.8,0,53.8-10.8,69.9-30.5v24.2H763.6z M643.1,916.1c-28.7,0-52-25.5-52-56.9s23.3-56.9,52-56.9c28.7,0,52,25.5,52,56.9
	C694.6,890.6,671.3,916.1,643.1,916.1z M1061.1,777.7c19.3-17.9,31.4-42.1,31.4-68.5c0-24.2-9.4-46.1-25.5-63.6
	c-17-18.4-46.6-29.6-86.9-29.6H859.5v354.4h155.9c59.6-0.9,108-46.1,108-101.7C1122.9,828.3,1108.6,799.7,1061.1,777.7L1061.1,777.7
	z M1001.1,909h-67.7V679.6h47.5c20.6,0,38.1,15.7,38.1,36.7c0,21.1-17.5,38.1-38.1,38.1h-25.1v64.1h46.1c25.1,0,43.9,20.6,43.9,45.7
	C1045,889.3,1028.4,907.6,1001.1,909"/>
<path class="st0" d="M327.2,834.6c0-23.7,19.3-43,43-43c23.7,0,43,19.3,43,43H327.2z M483.1,874.9c0.4-4.9,0.9-9.9,0.9-14.8
	c0.9-76.6-49.3-118.3-113.8-118.3s-116.9,52.9-116.9,118.3s52.4,118.3,116.9,118.3c49.3,0,87.8-22.4,107.5-57.3l-57.3-26.4
	c-7.2,15.7-24.2,26.9-44.4,26.9c-26.4,0-48.4-20.2-48.4-46.6H483.1z M1404.7,598.9h70.8v371.4h-70.8V598.9z M1525.2,598.9h70.8
	v371.4h-70.8V598.9z"/>
<path class="st1" d="M550.2,254.8c0-139,112.4-251.4,251.4-251.4c139,0,251.4,112.4,251.4,251.4S940.7,506.3,801.6,506.3
	C662.6,506.3,550.2,393.2,550.2,254.8z"/>
<path class="st2" d="M590.6,186.5c3.9,9.9,3.9,23,1.3,33.5c-0.7,0.7-1.3,0.7-2,0c-2-9.2-3.9-18.4-7.2-27.6c-2-5.3-8.5-9.9-5.9-15.8
	c1.3-1.3,3.9-1.3,5.9-0.7C586,179.2,588,182.5,590.6,186.5L590.6,186.5z M695.8,278.5c7.2,8.5,12.5,17.8,9.9,28.9
	c-1.3,2-0.7,5.9-3.9,6.6c-1.3,0.7-2.6-0.7-2.6-2c-0.7-5.9-0.7-12.5-3.9-17.1c-3.9-3.9-8.5-11.8-15.1-11.8c-4.6,1.3-7.9,6.6-10.5,9.9
	c0,0.7-0.7,0.7-1.3,0c-2.6-6.6,2.6-11.8,4.6-17.1c3.9-3.9,3.3-15.1,11.8-11.8C690.5,268,691.9,274.6,695.8,278.5L695.8,278.5z
	 M682,356.7c0.7,3.9,0.7,9.9-3.3,12.5c-3.9,1.3-9.2,2-13.8,1.3c-1.3-0.7-2.6-1.3-2-2.6c2-5.9,7.9-12.5,14.5-13.8
	C678.7,354.1,681.3,354.1,682,356.7L682,356.7z M202.1,116.8c15.8,3.9,32.9,3.9,44.7,16.4c6.6,7.9,7.2,21.7,2,29.6
	c-9.2,15.8-27.6,23.7-38.8,37.5c-11.2,9.2-15.1,23.7-11.8,38.1c3.9,12.5,16.4,21,28.9,21.7c19.7,0.7,34.2-9.2,50-18.4
	c15.8-11.2,30.2-25.6,48-30.2c11.8-3.9,25-2,36.8-6.6c12.5-2.6,22.4-13.1,32.2-22.4c11.2-9.2,24.3-14.5,38.8-13.8
	c13.1,2,20.4-9.9,29.6-17.8c15.1-13.8,34.8-15.1,52.6-23c12.5-3.9,22.4-13.1,34.2-19.1c11.2-4.6,26.3-5.9,37.5-1.3
	c7.2,3.3,15.1,6.6,21.7,11.8l53.3,44.7c0.7,2,2.6,3.3,3.9,3.9c15.1,18.4,30.9,36.2,43.4,56.5c3.9,7.2,5.9,14.5,7.9,22.4
	c2.6,30.2,10.5,56.5,20.4,82.8c2.6,3.9,7.9,7.2,10.5,11.2c8.5,11.8,13.8,27,27.6,34.8l7.9,3.9c0.7,0.7,0.7,2,0,2.6l-1.3,1.3
	c-16.4,2.6-28.9-7.2-37.5-19.1c-5.3-10.5-12.5-21.7-24.3-26.3c-0.7,0-1.3,0.7-1.3,0.7c1.3,3.9,5.3,6.6,6.6,9.9
	c4.6,7.2,8.5,15.1,10.5,23c2.6,8.5,11.8,14.5,19.1,19.1l10.5,5.3c1.3,0.7,2,2.6,0.7,3.9l-1.3,0.7c-17.8,0.7-33.5-5.3-46-18.4
	c-2.6-3.3-6.6-5.9-11.2-5.9c-7.9,7.2-15.8,13.8-26.3,14.5c-11.2-2-23-2-32.9,2c-9.2,3.3-18.4,7.2-28.3,7.2c-4.6,0-9.9-2-11.8-6.6
	c0-5.9-3.9-12.5-0.7-18.4l6.6-9.9c0-1.3-0.7-2.6-2-2.6c-2.6-0.7-7.2,3.9-8.5-0.7c0.7-9.9,10.5-16.4,17.1-23
	c1.3-7.9,4.6-15.1,10.5-21.7c0-0.7-0.7-2-2-2c-8.5,1.3-17.1,3.3-26.3,3.3c-7.2,3.9-16.4,6.6-25,3.9c-2-1.3-1.3-3.3-0.7-4.6
	c9.2-12.5,12.5-28.3,9.9-43.4c-0.7-0.7-0.7-2-2-2s-1.3,1.3-2,2c-2,14.5-6.6,25.6-14.5,38.1c-5.9,5.9-15.1,5.9-23,7.9
	c-2,0.7-3.9,2.6-3.9,4.6c0,5.3,3.3,8.5,5.3,13.1l17.1,31.6c0.7,8.5-3.3,17.1-5.3,25c0.7,1.3,2,0.7,3.3,0c5.9-5.3,9.9-12.5,12.5-20.4
	c0.7-3.3-0.7-7.2-2-9.9l-17.8-35.5c1.3-2,3.9-2,5.9-2.6c3.9,0,7.9,2,11.8,3.3c3.9,10.5,8.5,21.7,15.8,30.9
	c1.3,5.9,3.3,13.8-0.7,18.4c-3.9,7.9-7.9,14.5-13.1,21.7c-4.6,4.6-11.2,3.9-17.8,4.6h-2c-15.8,8.5-32.2,13.8-49.3,19.1
	c-7.2,3.3-15.8,0.7-21.7-3.9c-5.9-4.6-8.5-11.2-12.5-17.1c-4.6-5.9-11.8-0.7-17.1-3.9c-4.6-7.2-9.2-14.5-13.1-22.4c0-2,0-3.9,2-5.3
	c5.9-2,12.5-2,19.1-2.6c5.9-0.7,12.5,0.7,16.4,4.6c7.9,9.2,11.2,21.7,23,27.6c9.2,0.7,17.1-2,25-5.9c4.6-2.6,9.9-6.6,9.9-12.5
	c-0.7-11.8-8.5-21-18.4-27.6c-9.9-5.3-20.4-12.5-27.6-21.7c-3.9-5.3-4.6-11.2-6.6-16.4c-0.7-1.3-3.3-1.3-3.9-0.7
	c-3.9,3.3-0.7,9.2-0.7,13.1c0.7,2.6,2,5.9,0.7,7.9c-5.9,4.6-13.8,2-21,2.6c-14.5-0.7-28.3-6.6-43.4-5.3
	c-14.5,0.7-34.2,10.5-44.7-3.9c-5.3-13.8-3.9-30.2-1.3-44c0-1.3-1.3-2.6-2.6-2.6c-1.3-0.7-2.6,0-3.3,1.3
	c-3.9,13.8-4.6,28.9-7.9,43.4c-5.3,12.5-14.5,25.6-27,32.2c-11.2,5.9-24.3,7.9-38.1,9.2c-25,0.7-48,5.3-63.8,27
	c-1.3,2-3.3,3.9-2.6,6.6c0.7,0.7,2.6,1.3,3.3,0.7c17.1-19.1,38.8-27,63.8-25.6c23.7,0,47.3-3.9,62.5-24.3c3.9-4.6,6.6-9.2,9.9-14.5
	c2.6,0,4.6,3.3,6.6,4.6c0.7,7.2-5.3,11.8-7.9,17.8c-3.3,6.6-6.6,14.5-13.1,18.4c-7.9,2-14.5,7.2-21.7,11.2c-7.2,3.3-16.4,4.6-25,2.6
	c-10.5-2-25-4.6-35.5,0c-5.3,3.3-9.9,9.2-15.1,12.5c-7.2,3.3-13.8,9.2-22.4,8.5c-5.9-1.3-13.1-5.3-18.4,0
	c-6.6,5.9-7.9,16.4-16.4,20.4c-9.9,5.3-20.4,0-30.2-0.7c1.3-9.9,2.6-19.1,9.2-26.3c3.9-0.7,7.2-1.3,10.5-3.9
	c3.9-3.3,6.6-7.9,9.2-12.5c8.5-5.3,18.4-9.2,23.7-18.4c3.9-8.5,3.9-16.4,10.5-24.3l3.3-1.3l17.8-1.3c7.2-3.3,13.8-6.6,20.4-11.8
	c2-2,2.6-5.3,2-8.5c-3.3-8.5-5.9-14.5-7.9-23.7c-2-9.2-0.7-18.4-2-28.9c-0.7-0.7-1.3-2.6-2.6-2.6c-11.8,2.6-23,5.9-36.2,3.9
	c-17.8-2-36.2-13.8-42.7-31.6c-5.9-15.1-4.6-36.8,6.6-49.3c10.5-13.1,23.7-23,36.8-34.2c2-1.3,2-3.9,2.6-5.9c0-2.6-2.6-4.6-4.6-5.9
	c-7.9-2-17.1,0.7-25-2.6c-13.8-4.6-24.3-17.8-26.3-32.2c-0.7-6.6,0.7-11.8,3.9-17.1C184.3,106.2,192.2,114.1,202.1,116.8
	L202.1,116.8z M162.6,410.6v2c-3.3,7.9-5.3,17.1-7.9,26.3c-5.9-0.7-11.2-2.6-15.8-4.6c-1.3-1.3,0-2.6,0-3.9
	c5.9-5.3,3.9-11.8,5.3-19.1c0.7-3.9,4.6-7.2,8.5-9.2C157.3,402.8,160,407.4,162.6,410.6L162.6,410.6z M191.5,383
	c-3.3,6.6-7.9,14.5-15.1,18.4c-2.6,0.7-5.9,0.7-8.5-0.7c-1.3-1.3-3.9-2.6-3.9-5.3c0.7-2.6-0.7-5.9,2-7.2c5.3-3.3,10.5-6.6,15.8-11.2
	c1.3-0.7,3.9-1.3,4.6,0C188.9,379.1,190.9,380.4,191.5,383L191.5,383z M520.9,380.4c0.7,2.6,4.6,5.9,2,8.5
	c-5.3,3.9-11.2,6.6-18.4,5.9c-5.3-3.9-4.6-11.2-9.2-16.4c-1.3-3.9-7.2-3.9-5.9-7.9l2-1.3c7.2,0,14.5,0,21.7-1.3
	C520.3,367.3,518.3,375.8,520.9,380.4L520.9,380.4z M936.4,273.2c3.9,5.3,7.2,10.5,9.9,17.1c0.7,1.3,0,2.6-0.7,3.9
	c-0.7,1.3-2,2.6-3.9,1.3c-4.6-1.3-3.9-8.5-9.9-7.9c-3.9,0-6.6,3.3-9.9,5.3c-5.9,5.3-13.8,10.5-15.1,18.4c-1.3,2.6-0.7,7.2-3.3,8.5
	c-1.3,0.7-3.3-0.7-3.3-2c-0.7-10.5,2.6-20.4,9.9-27.6c7.2-5.9,12.5-14.5,18.4-21.7C932.5,268,935.1,270.6,936.4,273.2z M939.1,360.7
	c1.3,2.6,3.9,5.9,2,9.2c-2.6,2-7.2,0.7-10.5,0.7c-3.9-2-5.3-7.2-5.3-11.8c0-1.3,0-2,1.3-3.3C931.2,355.4,935.8,356.7,939.1,360.7z
	 M1037.7,159.5c2,2.6,0,5.3-1.3,7.2c-9.2,8.5-20.4,17.8-27,28.3c-2.6,3.3-4.6,7.2-5.9,11.2c0,0.7-0.7,0.7-1.3,0.7
	c-2-5.3,0.7-11.2,2-16.4c4.6-12.5,15.1-24.3,26.3-32.9C1031.8,156.9,1036.4,156.2,1037.7,159.5L1037.7,159.5z M1075.2,117.4
	c7.2,4.6,9.9,14.5,18.4,16.4c14.5,3.3,28.9,6.6,42.1,13.1c9.2,4.6,17.8,11.2,26.3,18.4c7.9,3.9,17.8,3.9,26.3,6.6
	c12.5,3.3,22.3,12.5,33.5,19.7c14.5,11.2,34.8,9.9,51.3,17.1c26.3,8.5,47.3,28.9,71.7,40.8c12.5,6.6,31.6,9.2,44.1,2
	c8.6-5.9,13.8-13.8,11.8-25c-4.6-27-34.2-40.8-48-63.1c-2.6-5.3-4.6-12.5-3.3-18.4c5.3-13.1,19.1-20.4,30.9-25
	c9.2-4.6,21-3.3,29.6-8.5c3.3-2,5.9-4.6,7.9-6.6c2,0,2,2,2.6,3.3c2.6,15.8,0,32.2-13.8,41.4c-5.3,3.9-11.8,5.3-17.8,6.6
	c-5.3,2-15.8-2-15.1,7.2c1.3,4.6,5.3,7.2,8.6,10.5c18.4,15.1,35.5,34.8,37.5,58.5c0.7,18.4-11.8,34.2-27.6,42.1
	c-11.8,4.6-26.3,6.6-38.8,3.3c-3.3-0.7-8.6-3.9-11.2,0.7c-0.7,5.3,2.6,9.2,2.6,13.8c1.3,8.5,1.3,19.7-1.3,28.3
	c-1.3,6.6-7.9,14.5-2,21c5.9,9.2,17.8,6.6,27.6,7.9c5.3,0.7,7.2,6.6,8.5,10.5c2,5.3,2,11.2,3.9,15.1c0,9.9,11.2,13.8,16.4,20.4
	c6.6,7.2,12.5,19.7,23.7,19.1c3.9,7.9,5.9,15.1,7.2,24.3l-1.3,1.3c-9.2,0-21.7,2.6-28.3-3.9c-7.9-5.3-10.5-19.7-22.3-15.8
	c-5.3,3.9-12.5,5.3-18.4,2.6c-5.9-2-9.9-7.2-15.1-10.5c-15.8-11.8-36.8-17.8-57.2-13.1c-11.8,3.3-21-5.3-30.2-10.5
	c-12.5-5.3-15.8-18.4-18.4-29.6l-2-13.8c0-1.3,1.3-2.6,2.6-3.3h2c7.2,16.4,21,34.8,38.8,40.8c16.4,6.6,31.6-2,49.3,1.3
	c16.4,2,29.6,12.5,42.1,22.4c1.3,0,2-0.7,2.6-2v-1.3c-15.1-19.1-36.2-28.9-60.5-27c-20.4,3.9-40.1-2.6-51.9-19.7
	c-6.6-9.9-11.2-20.4-13.2-31.6c-2-13.1-4.6-27.6-9.2-39.4c-1.3-0.7-2.6-2-3.9-1.3l-1.3,2c2,12.5,5.9,27.6,1.3,40.8
	c-3.3,10.5-13.8,14.5-23.7,15.1c-9.9,0.7-19.1-1.3-29.6-1.3c-23.7-0.7-44.7,8.5-69,6.6c2-5.9,5.9-11.8,3.9-18.4
	c-0.7-1.3-2.6-1.3-3.9-1.3c-4.6,2.6-3.9,8.5-6.6,12.5c-5.3,8.5-15.1,16.4-25,18.4c-7.2,5.3-13.8,12.5-19.7,19.1c-2,2-2,5.9-1.3,8.5
	c4.6,11.8,18.4,13.1,28.9,16.4c5.3,0.7,9.9-1.3,12.5-5.9c4.6-7.2,5.3-19.1,15.8-20.4h23c2,0.7,3.3,2,4.6,3.9l-0.7,3.3
	c-5.3,5.9-7.2,14.5-13.8,18.4c-3.9,1.3-8.5,0-11.2,3.3c-1.3,7.9-3.3,16.4-11.2,20.4c-5.9,5.3-14.5,2.6-21,0.7
	c-12.5-4.6-25-7.2-37.5-11.2c-5.3-1.3-7.2-7.9-13.2-9.2c-5.3-1.3-11.2,2.6-15.8-2c-2.6-5.9-3.9-9.9-5.3-16.4
	c-2-3.9-3.3-8.5-3.9-13.1c-0.7-3.9,0-6.6,1.3-9.9l17.1-30.9c1.3-2,2.6-3.9,4.6-4.6c3.9,0.7,8.6,2.6,12.5,4.6l-0.7,2l-17.8,27
	c-3.9,8.5,0,18.4,3.9,25.6c0.7,0.7,1.3,2,2,1.3c-0.7-5.3-1.3-10.5,0-16.4c1.3-5.3,4.6-9.9,7.2-14.5l13.8-20.4
	c1.3-3.3,1.3-8.5-1.3-11.8c-5.9-5.9-14.5-7.9-19.7-15.8c-11.2-15.1-12.5-32.9-13.8-51.9c0-1.3-1.3-3.3-3.3-3.9
	c-1.3-0.7-2.6,1.3-3.3,2c-3.3,12.5-1.3,27.6,2,38.8c2,8.5,5.9,17.1,9.9,25c0.7,1.3-0.7,3.3-2,3.9c-9.2,0.7-18.4,0-27-1.3
	c-11.8-2-20.4-11.2-30.2-18.4c-1.3-0.7-2,0.7-2.6,1.3c2.6,13.1,17.1,21,21.7,32.9c2.6,9.9,12.5,17.1,14.5,27.6
	c0,1.3-1.3,3.3-2.6,3.9c-3.3,0.7-6.6-1.3-9.9,0.7c-0.7,5.9,3.3,11.8,0.7,17.1c-3.3,5.3-7.9,11.2-13.8,11.2
	c-11.8-3.9-23.7-9.2-35.5-12.5c-8.5-0.7-17.1,0.7-25,1.3c-7.9-1.3-13.1-8.5-19.1-12.5c-2-0.7-3.9-0.7-5.3,0.7
	c-13.2,13.1-27.6,27.6-47.3,27c-1.3,0-2-1.3-2-2.6v-1.3c8.5-7.9,19.1-15.8,23-27c2.6-9.2,10.5-15.8,13.8-24.3c0.7-1.3-0.7-2-2-2.6
	l-2,1.3c-9.9,9.9-17.1,21-24.3,31.6c-7.2,7.2-17.8,11.8-28.9,9.2c-1.3-0.7-1.3-2.6-0.7-3.9c40.8-25,45.4-69.7,56.5-110.5
	c7.9-27,13.8-54.6,34.8-76.3c31.6-34.8,71-55.2,105.9-85.5c5.3-4.6,10.5-9.2,17.1-9.2C1050.2,101,1063.3,107.6,1075.2,117.4
	L1075.2,117.4z M1450.6,408c3.3,4.6,2,11.8,3.3,17.1c0.7,3.9,5.9,7.2,3.3,11.2l-14.5,4.6c-2.6,0-1.3-3.3-2.6-4.6
	c-1.3-8.5-3.3-14.5-5.9-22.4c-0.7-4.6,3.9-7.9,7.2-10.5C1444.6,402.1,1447.3,406,1450.6,408L1450.6,408z M1417,378.4
	c5.3,4.6,12.5,7.9,16.4,13.8c0.7,2.6-1.3,5.3-2.6,7.2c-2,2-4.6,3.3-7.9,3.3c-3.3,0-5.9-2-7.9-4.6c-3.3-5.3-7.9-9.9-9.2-15.1
	C1407.8,379.7,1412.4,374.5,1417,378.4L1417,378.4z M1100.1,373.2c-0.7,6.6-2.6,12.5-5.3,18.4c-2,3.9-7.9,2.6-11.8,2
	c-4-1.3-10.5-2-11.2-7.9c-0.7-5.3,2-10.5,4.6-14.5c5.9-0.7,13.2,0.7,19.1-0.7C1098.2,370.5,1100.1,371.2,1100.1,373.2"/>
</svg>
