<?xml version="1.0" encoding="utf-8"?>
<!-- Generator: Adobe Illustrator 27.4.0, SVG Export Plug-In . SVG Version: 6.00 Build 0)  -->
<svg version="1.1" id="Layer_1" xmlns="http://www.w3.org/2000/svg" xmlns:xlink="http://www.w3.org/1999/xlink" x="0px" y="0px"
	 viewBox="0 0 85 91" style="enable-background:new 0 0 85 91;" xml:space="preserve">
<style type="text/css">
	.st0{fill:#FFFFFF;}
</style>
<path class="st0" d="M39.9,0.2C39,1.9,26.7,24.8,21.5,34.6c-0.2,0.3-0.2,0.6,0,0.9c5.2,9.6,15.6,29.2,15.7,29.3
	c0.1-0.2,10.6-19.7,15.7-29.3c0.2-0.3,0.2-0.6,0-0.9c-3-5.5-5.9-11-8.8-16.5c-0.2-0.4-0.2-0.6,0-1c0.8-1.5,1.6-2.9,2.4-4.5
	c0.1,0.2,7.9,14.8,11.8,22c0.2,0.3,0.2,0.5,0,0.8c-6.1,11.3-12.1,22.7-18.2,34c-0.2,0.3-0.3,0.4-0.7,0.4c-1.5,0-3,0-4.5,0
	c-0.3,0-0.4-0.1-0.6-0.3c-6.1-11.4-12.2-22.8-18.3-34.2c-0.1-0.2-0.1-0.4,0-0.7c6.1-11.4,12.2-22.8,18.3-34.2
	c0.1-0.1,0.3-0.3,0.4-0.3C36.4,0.2,38.1,0.2,39.9,0.2z"/>
<path class="st0" d="M46.8,7.2C44,12.4,36.3,26.8,32.1,34.6c-0.2,0.3-0.2,0.6,0,0.9c3,5.5,5.9,11,8.8,16.5c0.2,0.4,0.2,0.6,0,1
	c-0.8,1.5-1.6,2.9-2.4,4.5c-0.1-0.2-7.9-14.8-11.8-22c-0.2-0.3-0.2-0.5,0-0.8c6.1-11.3,12.1-22.7,18.2-34c0.2-0.3,0.3-0.4,0.7-0.4
	c1.5,0,3,0,4.5,0c0.3,0,0.4,0.1,0.6,0.3C56.8,11.9,62.9,23.3,69,34.7c0.1,0.2,0.1,0.4,0,0.7c-6.1,11.4-12.2,22.8-18.3,34.2
	c-0.1,0.1-0.3,0.3-0.4,0.3c-1.7,0-3.3,0-5.1,0c0.1-0.2,12.3-23.1,18.4-34.4c0.2-0.3,0.2-0.6,0-0.9C58.4,24.9,48,5.4,47.8,5.2
	C47.8,5.3,47.4,6,46.8,7.2z"/>
<path class="st0" d="M3.7,90.2H1.2v-11c0-0.1,0-0.2,0-0.3S1,78.8,0.9,78.8l-0.7-0.3l0.2-1.1h6.4c1.7,0,2.8,0.3,3.6,0.9
	c0.7,0.6,1.1,1.6,1.1,3c0,1.1-0.2,2-0.7,2.6c-0.5,0.6-1.2,1-2.1,1.2l3.1,5.1H9l-2.8-4.8H3.7V90.2z M3.7,83.5h2.8
	c0.9,0,1.5-0.2,1.9-0.5C8.8,82.7,9,82.1,9,81.4c0-0.7-0.2-1.3-0.6-1.6c-0.4-0.3-1-0.5-1.9-0.5H3.7V83.5z"/>
<path class="st0" d="M23.2,77.4v1.9h-6.7v3.4h5.3v1.9h-5.3v3.6h6.9v1.9H14v-11c0-0.1,0-0.2,0-0.3c0,0-0.1-0.1-0.2-0.1L13,78.5
	l0.2-1.1L23.2,77.4L23.2,77.4z"/>
<path class="st0" d="M25.5,79.2c0-0.1,0-0.2,0-0.3c0,0-0.1-0.1-0.2-0.1l-0.7-0.3l0.2-1.1h2.9c0.2,0,0.3,0,0.4,0.1s0.2,0.2,0.3,0.4
	l6.6,8.9v-9.3h2.3v12.8h-2.5l-6.9-9.3v9.3h-2.3L25.5,79.2L25.5,79.2z"/>
<path class="st0" d="M46.3,77.4c0.3,0.5,0.5,1,0.8,1.6c0.3,0.6,0.6,1.3,0.9,2.1c0.3,0.8,0.6,1.5,0.9,2.3c0.3,0.8,0.6,1.6,0.9,2.4
	c0.3,0.8,0.5,1.6,0.8,2.3c0.2,0.7,0.4,1.4,0.6,2h-2.6c-0.1-0.5-0.3-1-0.4-1.5c-0.2-0.5-0.3-1-0.4-1.5H42c-0.2,0.5-0.3,1-0.4,1.5
	c-0.1,0.5-0.3,1-0.4,1.5h-2.6c0.2-0.6,0.3-1.3,0.6-2c0.2-0.7,0.5-1.5,0.8-2.3c0.3-0.8,0.6-1.6,0.9-2.4c0.3-0.8,0.6-1.6,0.9-2.3
	c0.3-0.7,0.6-1.4,0.9-2.1c0.3-0.6,0.6-1.2,0.8-1.6H46.3z M44.8,79.6c-0.8,1.8-1.6,3.7-2.2,5.7h4.4C46.4,83.4,45.6,81.5,44.8,79.6z"
	/>
<path class="st0" d="M52.4,79.2c0-0.1,0-0.2,0-0.3c0,0-0.1-0.1-0.2-0.1l-0.7-0.3l0.2-1.1h3.1c0.1,0,0.2,0.1,0.2,0.2V85
	c0,1.2,0.3,2.1,0.8,2.6c0.5,0.5,1.4,0.8,2.5,0.8c1.2,0,2-0.3,2.5-0.8c0.5-0.5,0.8-1.4,0.8-2.6v-7.6h2.5v7.8c0,0.9-0.1,1.7-0.3,2.4
	c-0.2,0.7-0.6,1.2-1,1.6c-0.5,0.4-1.1,0.7-1.8,0.9c-0.7,0.2-1.6,0.3-2.7,0.3c-1,0-1.9-0.1-2.7-0.3c-0.7-0.2-1.4-0.5-1.8-0.9
	c-0.5-0.4-0.8-1-1-1.6c-0.2-0.7-0.3-1.5-0.3-2.4L52.4,79.2L52.4,79.2z"/>
<path class="st0" d="M67,79.2c0-0.1,0-0.2,0-0.3c0,0-0.1-0.1-0.2-0.1L66,78.5l0.2-1.1h3.1c0.1,0,0.2,0.1,0.2,0.2v10.7h5.9v1.9H67
	L67,79.2L67,79.2z"/>
<path class="st0" d="M78.2,79.3H74v-1.9h10.9v1.9h-4.2v10.9h-2.5V79.3z"/>
</svg>
