<?xml version="1.0" encoding="utf-8"?>
<!-- Generator: Adobe Illustrator 27.4.0, SVG Export Plug-In . SVG Version: 6.00 Build 0)  -->
<svg version="1.1"
	 id="Santander" xmlns:rdf="http://www.w3.org/1999/02/22-rdf-syntax-ns#" xmlns:inkscape="http://www.inkscape.org/namespaces/inkscape" xmlns:dc="http://purl.org/dc/elements/1.1/" xmlns:sodipodi="http://sodipodi.sourceforge.net/DTD/sodipodi-0.dtd" xmlns:cc="http://creativecommons.org/ns#" xmlns:svg="http://www.w3.org/2000/svg" inkscape:version="1.1 (c68e22c387, 2021-05-23)" sodipodi:docname="Banco_Santander_Logotipo.svg"
	 xmlns="http://www.w3.org/2000/svg" xmlns:xlink="http://www.w3.org/1999/xlink" x="0px" y="0px" viewBox="0 0 238.2 41.5"
	 style="enable-background:new 0 0 238.2 41.5;" xml:space="preserve">
<style type="text/css">
	.st0{fill:#FFFFFF;}
</style>
<sodipodi:namedview  bordercolor="#666666" borderopacity="1.0" fit-margin-bottom="0" fit-margin-left="0" fit-margin-right="0" fit-margin-top="0" id="namedview11" inkscape:current-layer="Santander" inkscape:cx="105.82848" inkscape:cy="46.445767" inkscape:pagecheckerboard="0" inkscape:pageopacity="0.0" inkscape:pageshadow="2" inkscape:window-height="1017" inkscape:window-maximized="1" inkscape:window-width="1920" inkscape:window-x="1912" inkscape:window-y="-8" inkscape:zoom="2.3575884" pagecolor="#ffffff" showgrid="false">
	</sodipodi:namedview>
<g id="g8" transform="translate(0,-0.4)">
	<path id="path6" class="st0" d="M31.5,19.5c-0.1-1.5-0.5-3-1.3-4.3L23.4,3.3c-0.5-0.9-0.9-1.9-1.1-2.9L22,0.9
		c-1.7,2.9-1.7,6.6,0,9.5l5.5,9.5c1.7,2.9,1.7,6.6,0,9.5l-0.3,0.5c-0.2-1-0.6-2-1.1-2.9l-5-8.7l-3.2-5.6c-0.5-0.9-0.9-1.9-1.1-2.9
		l-0.3,0.5c-1.7,2.9-1.7,6.5,0,9.5l0,0l5.5,9.5c1.7,2.9,1.7,6.6,0,9.5l-0.3,0.5c-0.2-1-0.6-2-1.1-2.9l-6.9-11.9
		c-0.9-1.6-1.3-3.4-1.3-5.2C5.1,21.2,0,25.3,0,30c0,6.6,9.8,11.9,21.9,11.9S43.8,36.6,43.8,30C43.9,25.5,38.9,21.4,31.5,19.5z
		 M52.2,39.8c0.1-1.7,0.3-2.8,0.8-4.2c2.3,1.1,5.3,1.6,7.5,1.6c3.8,0,6-1.2,6-3.7c0-2.4-1.6-3.5-5.4-5.2L59,27.5
		c-3.9-1.7-6.5-3.9-6.5-8.2c0-4.7,3.3-7.7,9.9-7.7c2.7,0,5.2,0.4,7.5,1.2c-0.1,1.6-0.4,2.9-0.8,4.1c-2.2-0.8-4.9-1.2-6.8-1.2
		c-3.6,0-5.2,1.4-5.2,3.6c0,2.1,1.6,3.4,4.5,4.6l2.2,0.9c5.2,2.2,7.4,4.6,7.4,8.6c0,4.7-3.6,8-10.6,8C57.3,41.4,54.5,40.9,52.2,39.8
		z M93.3,20.1v20.6h-4.2l-0.2-2.5c-1.2,1.8-2.9,3-5.8,3c-5.4,0-9.1-4-9.1-10.9c0-7.2,3.9-11.4,11.5-11.4C88.5,19,91,19.3,93.3,20.1z
		 M88.8,36V23.1c-0.9-0.2-2-0.2-3.3-0.2c-4.7,0-6.9,2.9-6.9,7.5c0,4.2,1.7,7.2,5.7,7.2C86.2,37.5,87.6,36.9,88.8,36z M116.5,26.9
		v13.8H112v-13c0-3.3-1.1-4.8-5.6-4.8c-1.1,0-2.3,0.1-3.6,0.3v17.5h-4.5V20.1c2.9-0.7,6.1-1.2,8.2-1.2
		C114.1,19,116.5,21.9,116.5,26.9z M129.1,37.4c1.3,0,2.6-0.2,3.5-0.6c-0.1,1.2-0.3,2.6-0.5,3.8c-1.2,0.5-2.6,0.7-3.8,0.7
		c-4.4,0-7.2-2-7.2-7V12.6c1.4-0.5,3.1-0.7,4.5-0.7v7.8h7.2c-0.1,1.4-0.2,2.7-0.4,3.9h-6.8v10.1C125.6,36.3,126.9,37.4,129.1,37.4z
		 M153.4,20.1v20.6h-4.2l-0.2-2.5c-1.2,1.8-2.9,3-5.8,3c-5.4,0-9.1-4-9.1-10.9c0-7.2,3.9-11.4,11.5-11.4
		C148.6,19,151,19.3,153.4,20.1L153.4,20.1z M148.8,36V23.1c-0.9-0.2-2-0.2-3.3-0.2c-4.7,0-6.9,2.9-6.9,7.5c0,4.2,1.7,7.2,5.7,7.2
		C146.2,37.5,147.7,36.9,148.8,36z M176.6,26.9v13.8H172v-13c0-3.3-1.1-4.8-5.6-4.8c-1.1,0-2.3,0.1-3.6,0.3v17.5h-4.5V20.1
		c2.9-0.7,6.1-1.2,8.2-1.2C174.1,19,176.6,21.9,176.6,26.9L176.6,26.9z M199.5,11.9v28.8h-4.2l-0.2-2.6c-1.2,1.9-2.9,3.1-5.9,3.1
		c-5.4,0-9.1-4-9.1-10.9c0-7.2,3.9-11.4,11.5-11.4c1.2,0,2.3,0.1,3.4,0.3v-6.8C196.4,12,198,11.9,199.5,11.9z M195,36V23.3
		c-1.2-0.2-2.4-0.4-3.6-0.4c-4.5,0-6.6,2.8-6.6,7.5c0,4.2,1.7,7.2,5.7,7.2C192.3,37.5,193.8,36.9,195,36L195,36z M222.3,31.9h-14.5
		c0.6,3.7,2.7,5.4,6.8,5.4c2.5,0,5-0.5,7.2-1.6c-0.2,1.2-0.4,2.8-0.7,4.1c-2.1,0.9-4.2,1.3-6.7,1.3c-7.6,0-11.2-4.2-11.2-11.2
		c0-6.1,2.8-11,10-11c6.5,0,9.3,4.2,9.3,9.4C222.5,29.7,222.5,30.7,222.3,31.9L222.3,31.9z M207.8,28.1H218c0-3.4-1.8-5.4-4.9-5.4
		C209.8,22.8,208.1,24.6,207.8,28.1z M238.2,19.2c0,1.4-0.2,3-0.4,3.9c-1.1-0.1-2.1-0.2-3.4-0.2c-1.1,0-2.2,0.1-3.3,0.2v17.6h-4.5
		V20.1c1.9-0.7,5.2-1.2,7.7-1.2C235.6,19,237.2,19,238.2,19.2z"/>
</g>
</svg>
