<?xml version="1.0" encoding="utf-8"?>
<!-- Generator: Adobe Illustrator 27.4.0, SVG Export Plug-In . SVG Version: 6.00 Build 0)  -->
<svg version="1.1" id="Layer_1" xmlns="http://www.w3.org/2000/svg" xmlns:xlink="http://www.w3.org/1999/xlink" x="0px" y="0px"
	 viewBox="0 0 3133.9 695.3" style="enable-background:new 0 0 3133.9 695.3;" xml:space="preserve">
<style type="text/css">
	.st0{fill:#FFFFFF;}
</style>
<g id="Group_123" transform="translate(4186.262 -4146.256)">
	<g id="g120" transform="translate(-2179.293 4257.68)">
		<path id="path122" class="st0" d="M0,0h-2.8C-144,1.4-231.2,108.5-231.2,242.9c0,129,79.4,237.4,223.6,237.4h4.8
			c140.4-1.9,228.4-96.7,228.4-245C225.6,111.1,149.7,0,0,0 M-1.4,381.6l-1.4-0.2h0c-60,0-97.3-58-96.6-141.4
			c0-80.7,36.6-141.5,96.6-141.5h0c60.8,0,96.6,60.8,96.6,140.8C93.9,323.6,58.7,381.6-1.4,381.6 M496.8,0h-2.7
			C352.9,1.4,265.6,108.5,265.6,242.9c0,129,79.5,237.4,223.6,237.4h4.8c140.4-1.9,228.4-96.7,228.4-245
			C722.5,111.1,646.6,0,496.8,0 M495.4,381.6l-1.4-0.2c-60,0-97.3-57.9-96.6-141.4c0-80.7,36.6-141.5,96.6-141.5
			c60.7,0,96.6,60.8,96.6,140.8C590.7,323.6,555.6,381.6,495.4,381.6 M1035.9,221.4v-1.3c54.6-20.7,75.9-58.7,75.9-97.3
			c0-45.5-26.2-78.6-62.7-95.9c-30.6-15.2-63.9-21-113.9-22.4c-8.9-0.3-18.3-0.3-28.4-0.3c-57.2,0-118.6,4.8-146.9,10.2v455.5
			c24.9,4.9,66.2,8.3,122.9,8.3c18.9,0,36.4-0.6,52.4-1.7c68.1-4.6,111.4-18.6,139.4-39.8c31.1-23.4,52.4-58,52.4-102.2
			C1126.9,279.4,1092.5,237.3,1035.9,221.4 M883.3,96.6c8.3-1.5,20-2.9,40.7-2.9c3.8,0,7.5,0.3,11.1,0.6
			c34.7,2.7,51.7,19.1,51.7,43.6c0,24.2-16.9,41-51.7,46.5c-8.9,1.3-17.9,1.9-26.9,1.9h-24.9L883.3,96.6z M935.2,386.2
			c-5.3,0.6-10.5,0.9-15.8,0.9c-15.9,0-26.9,0-36-1.4v-111h29.7c7.4-0.1,14.8,0.3,22.1,1.1c35.5,4.5,60.7,20.4,60.7,53.2
			C995.9,365,969.3,382.3,935.2,386.2 M-801.1,7.8v464.8h124.8V83.6C-676.3,25.3-708,7.8-801.1,7.8 M-982.6,191.2
			c-58.7-22-83.5-31.1-83.5-54.6c0-20.6,20.7-34.4,58.7-34.4c46.2,0,92.2,17.1,100.7,22c17.6-47.7,27.7-123.5-99.4-123.5
			c-117.2,0-187,63.5-187,145.7c0,68.9,52.4,111.7,131.1,139.9c52.4,18,73.1,30.5,73.1,53.2c0,23.5-20.7,37.9-63.5,37.9
			c-46.9,0-92.5-14.4-120.7-28.9l-23.5,102.8c26.2,13.8,80.7,28.4,136.6,28.4c136,0,198-68.4,198-148.4
			C-861.9,266.5-899.1,222.2-982.6,191.2 M-349.9,376c-85.6,0-135.9-52.5-135.9-136.6c0-94.6,62.1-136.6,133.2-136.6
			c37.2,0,75.8,10.9,86.3,16.6c21.9-50.2,16.6-118.6-91.8-118.6c-138.7,0-258.8,83.3-258.8,246.9c0,123.7,76.5,231.9,250.5,231.9
			c55.2,0,99.4-10.3,116.6-19.2l-17.2-97.3C-286.3,370.5-320.2,376-349.9,376"/>
	</g>
	<g id="g124" transform="translate(-3875.772 4409.795)">
		<path id="path126" class="st0" d="M0,0l84.3-145.6L16.2-263.5h-287.2c-6.3,0.6-12.5,2.5-18,5.6c-13.3,7.6-21.5,21.8-21.4,37.2
			c0,6.6,1.5,13.2,4.5,19.1l210.7,366.2l68.3-118.2h0L0,0"/>
	</g>
	<g id="g128" transform="translate(-3859.62 4146.266)">
		<path id="path130" class="st0" d="M0,0l179.2,309.9h136.2L458.7,61c2.8-5.7,4.2-11.9,4.2-18.3C462.8,20.1,445.1,1.4,422.5,0H0z"/>
	</g>
	<g id="g132" transform="translate(-3554.331 4456.2)">
		<path id="path134" class="st0" d="M0,0h-348.3l-68.4,118.2l144.3,248.5c3.6,5.3,8.3,9.7,13.8,13c6.5,3.8,13.9,5.8,21.4,5.7
			c14.5-0.1,27.9-7.3,35.9-19.4L10.1,0H0z"/>
	</g>
</g>
</svg>
