<?xml version="1.0" encoding="utf-8"?>
<!-- Generator: Adobe Illustrator 27.4.0, SVG Export Plug-In . SVG Version: 6.00 Build 0)  -->
<svg version="1.1" id="Layer_1" xmlns="http://www.w3.org/2000/svg" xmlns:xlink="http://www.w3.org/1999/xlink" x="0px" y="0px"
	 viewBox="0 0 599.9 62.6" style="enable-background:new 0 0 599.9 62.6;" xml:space="preserve">
<style type="text/css">
	.st0{fill:#FFFFFF;}
</style>
<path id="votorantim-s-a-logo-vector" class="st0" d="M355.9,1.2h-19L314,61.6h16.7l4.4-12.8h21.6l1.5,4.3c2.1,6.2,5.3,8.5,12.4,8.5
	h8.7L355.9,1.2z M339.1,35.8l7.1-19.8l6.6,19.8H339.1z M219.8,0c-14.8,0-29.6,10.2-29.6,31c0,20.3,12.4,31.6,29.6,31.6
	c15.7,0,29.9-10.3,29.9-31.6C249.7,11.2,237.3,0,219.8,0z M219.8,47.6c-9.2,0-12.4-6.4-12.4-16.5c0-10.3,4.6-16,12.4-16
	c9.2,0,12.6,6.4,12.6,16C232.4,41.6,227.9,47.6,219.8,47.6z M300.5,38.8c6.4-3,9.9-9.4,9.9-16.9c0-13.7-8-20.8-25.2-20.8h-26.4v60.4
	h16.6V42.3h10.3l4.7,10.5c2.7,6,5.7,8.8,13.3,8.8h8.9L300.5,38.8z M282.9,29h-7.5V14.8h7.9c7.3,0,9.8,2.1,9.8,7.1S290.2,29,282.9,29
	L282.9,29z M535.9,1.2h16.7l15.6,27.4L583,1.2h8.7c6,0,8.2,2.8,8.2,8.2v52.2H584V25.2l-10.5,19H562l-10.5-19v36.3h-15.8L535.9,1.2
	L535.9,1.2z M506.4,1.2h9c5.6,0,8,2.8,8,8.2v52.2h-17.1L506.4,1.2L506.4,1.2z M499.2,16.1h-17.9v45.5h-17.1V16.1h-18.6V1.2H491
	c5.7,0,8.1,2.8,8.1,8.2L499.2,16.1L499.2,16.1z M384.2,1.2h15.3l23.1,34.5V1.2h7.7c5.7,0,8.1,2.8,8.1,8.2v52.2h-15.1L400,28.1v33.5
	h-15.9L384.2,1.2L384.2,1.2z M186.2,16.1h-17.8v45.5h-17.1V16.1h-18.6V1.2h45.4c5.7,0,8.1,2.8,8.1,8.2L186.2,16.1L186.2,16.1z
	 M98.8,0C84,0,69.2,10.2,69.2,31c0,20.3,12.4,31.6,29.6,31.6c15.7,0,29.9-10.3,29.9-31.6C128.7,11.2,116.2,0,98.8,0L98.8,0z
	 M98.8,47.6c-9.2,0-12.4-6.4-12.4-16.5c0-10.3,4.6-16,12.4-16c9.2,0,12.6,6.4,12.6,16C111.4,41.6,106.9,47.6,98.8,47.6L98.8,47.6z
	 M22.4,9.5C20.3,3.3,16,1.1,8.9,1.1H0l20.6,50.5c2.8,7,6.7,10.7,13.8,10.7c1.8,0,3.7-0.3,5.4-0.9L22.4,9.5z M50.6,1.2L37.9,35.3
	c-0.8,2-0.8,4.3-0.1,6.3l5.9,17.3c1.8-1.9,3.2-4.1,4.1-6.6L68.5,1.2L50.6,1.2z"/>
</svg>
